<?xml version="1.0" standalone="no"?>
<!DOCTYPE svg PUBLIC "-//W3C//DTD SVG 20010904//EN"
 "http://www.w3.org/TR/2001/REC-SVG-20010904/DTD/svg10.dtd">
<svg version="1.0" xmlns="http://www.w3.org/2000/svg"
 width="3000.000000pt" height="3000.000000pt" viewBox="0 0 3000.000000 3000.000000"
 preserveAspectRatio="xMidYMid meet">
<metadata>
Created by potrace 1.11, written by Peter Selinger 2001-2013
</metadata>
<g transform="translate(0.000000,3000.000000) scale(0.100000,-0.100000)"
fill="#000000" stroke="none">
<path d="M1100 29912 c0 -2 753 -757 1674 -1678 l1673 -1673 0 -11538 0
-11537 -1673 -1674 c-921 -920 -1674 -1676 -1674 -1678 0 -7 13473 2 13560 9
41 3 116 8 165 11 50 4 117 8 150 11 33 2 96 7 140 10 78 6 137 11 220 20 22
2 72 7 110 10 39 3 81 8 95 10 14 3 50 7 80 10 97 10 218 25 250 30 14 3 48 7
75 11 28 3 59 8 70 10 11 2 40 7 65 10 39 5 262 40 309 49 9 1 36 6 61 10 25
4 54 9 65 11 11 2 34 6 50 9 315 54 976 207 1315 305 41 12 104 30 140 40 200
55 847 266 865 282 5 4 15 8 21 8 7 0 25 5 41 12 15 6 30 12 33 13 3 1 14 5
25 9 11 4 36 14 55 21 241 89 730 289 910 372 30 14 87 40 125 58 39 18 102
47 140 65 172 78 612 302 788 402 38 21 70 38 72 38 2 0 43 23 92 51 48 28
112 65 141 81 30 16 94 53 143 83 50 30 92 55 95 55 3 0 17 8 32 19 15 10 70
45 122 76 171 105 222 138 475 306 219 146 621 430 635 448 3 4 18 15 35 25
45 29 527 405 545 425 3 3 46 40 95 81 86 71 363 309 396 340 8 8 38 35 65 59
203 181 750 717 914 896 30 33 82 90 115 125 33 36 94 103 135 150 41 46 82
91 90 100 46 49 254 296 350 415 35 44 72 89 82 100 54 61 297 380 454 595
107 147 302 427 329 472 6 9 31 47 56 85 171 254 596 958 650 1078 5 11 29 56
54 100 55 99 314 614 377 750 70 151 113 246 128 285 7 19 17 40 20 45 4 6 31
66 60 135 28 69 58 139 65 155 26 59 138 343 202 515 136 365 336 993 428
1345 36 136 113 444 119 475 2 14 18 84 34 155 17 72 33 144 36 160 3 17 10
53 16 80 6 28 13 64 16 80 3 17 9 46 14 65 5 19 11 53 15 75 7 52 12 79 35
200 10 55 22 118 25 140 3 22 8 51 10 65 11 69 35 221 41 265 3 28 8 57 9 66
2 9 6 40 10 70 3 30 8 61 10 69 2 8 7 51 11 95 3 44 8 83 10 86 1 3 6 37 9 75
3 38 8 80 10 94 3 14 7 57 10 95 4 39 8 81 10 95 2 14 6 63 10 110 3 47 8 101
10 120 2 19 7 85 11 145 3 61 7 128 9 150 4 58 16 322 21 450 6 163 6 977 0
1145 -11 295 -18 467 -21 530 -2 36 -6 106 -9 155 -3 50 -8 131 -12 180 -3 50
-8 113 -9 140 -4 65 -15 211 -20 255 -2 19 -6 75 -10 123 -4 49 -8 98 -10 109
-3 11 -7 55 -10 97 -3 42 -8 87 -10 101 -2 14 -7 52 -10 85 -3 33 -7 76 -10
95 -3 19 -7 55 -10 80 -14 122 -18 156 -21 174 -2 10 -6 44 -10 75 -3 31 -8
63 -9 72 -2 9 -6 38 -9 65 -9 73 -14 102 -25 179 -17 106 -20 130 -42 260 -11
66 -22 134 -24 150 -3 17 -8 44 -11 60 -4 17 -8 37 -9 45 -1 8 -5 29 -8 45 -4
17 -9 46 -12 65 -6 34 -42 225 -51 265 -2 11 -6 31 -9 45 -10 55 -45 219 -60
285 -9 39 -18 77 -20 85 -8 38 -15 70 -30 134 -9 38 -18 77 -20 85 -17 83
-150 585 -159 600 -3 4 -7 18 -9 32 -3 13 -19 71 -37 129 -17 58 -42 141 -55
185 -67 223 -272 814 -332 955 -3 8 -7 17 -8 20 -8 23 -159 391 -187 455 -124
285 -358 769 -462 955 -20 36 -46 85 -58 110 -13 25 -26 47 -30 48 -5 2 -8 7
-8 12 0 13 -210 375 -285 490 -38 60 -139 220 -150 238 -16 27 -49 76 -60 89
-5 7 -48 69 -95 138 -156 231 -566 773 -640 845 -3 3 -25 30 -50 60 -25 30
-54 64 -65 76 -11 12 -45 50 -75 84 -230 266 -629 669 -896 907 -38 34 -85 76
-104 93 -58 53 -370 313 -445 371 -38 29 -72 56 -75 59 -38 39 -483 359 -705
506 -169 111 -541 344 -550 344 -2 0 -49 27 -104 60 -56 33 -103 60 -106 60
-3 0 -26 13 -52 29 -301 184 -1194 599 -1668 776 -33 12 -116 44 -185 70 -253
96 -1010 340 -1119 361 -14 3 -28 7 -33 10 -4 3 -34 12 -65 20 -32 8 -119 31
-193 50 -129 34 -358 92 -390 99 -8 2 -105 24 -215 48 -175 40 -562 118 -725
147 -30 5 -89 16 -130 24 -41 8 -97 17 -124 21 -27 3 -52 8 -55 9 -3 2 -28 7
-56 10 -47 6 -151 22 -205 31 -14 2 -45 7 -70 10 -25 3 -56 7 -70 10 -14 2
-45 7 -70 11 -25 3 -54 7 -65 9 -11 2 -62 8 -113 14 -52 6 -108 13 -125 16
-75 10 -168 21 -257 30 -36 4 -76 8 -90 10 -14 2 -54 7 -90 10 -65 6 -115 11
-200 20 -66 7 -145 14 -234 20 -43 4 -95 8 -115 10 -20 2 -79 6 -131 10 -97 6
-140 9 -315 19 -55 4 -127 8 -160 11 -33 2 -139 7 -235 11 -96 4 -202 9 -235
11 -81 6 -13835 11 -13835 5z m11955 -2525 c28 -3 95 -8 150 -12 55 -4 109 -9
120 -11 11 -2 47 -6 80 -9 69 -6 398 -53 417 -60 7 -2 29 -6 48 -9 58 -8 309
-63 413 -90 533 -139 982 -320 1462 -591 325 -183 708 -461 1030 -749 83 -73
369 -358 440 -436 111 -123 199 -226 284 -330 193 -239 300 -385 448 -610 45
-69 86 -129 91 -135 4 -5 24 -37 43 -70 20 -33 59 -97 87 -142 29 -46 52 -85
52 -87 0 -2 21 -40 46 -83 26 -43 59 -100 74 -128 95 -175 122 -228 200 -385
48 -96 111 -227 140 -290 29 -63 66 -144 82 -180 212 -460 513 -1316 683
-1945 15 -55 36 -129 46 -165 10 -36 20 -76 23 -90 2 -14 20 -86 40 -160 19
-74 37 -146 40 -160 3 -14 25 -113 50 -220 25 -107 47 -206 49 -220 3 -14 15
-70 27 -125 22 -103 46 -225 56 -279 3 -17 11 -62 19 -101 8 -38 16 -83 19
-100 11 -68 25 -142 30 -165 9 -38 16 -80 22 -135 3 -27 8 -53 10 -56 2 -4 8
-38 14 -75 5 -38 12 -82 15 -99 17 -100 27 -162 40 -255 8 -58 17 -116 19
-130 3 -14 7 -45 10 -70 9 -67 17 -132 22 -159 8 -58 44 -335 50 -396 2 -22 5
-49 8 -60 2 -11 7 -58 12 -105 4 -47 8 -87 9 -90 1 -3 5 -39 9 -80 4 -41 9
-91 11 -110 7 -54 24 -238 30 -310 2 -36 7 -85 10 -110 7 -71 15 -160 20 -220
2 -30 6 -86 9 -125 3 -38 8 -108 11 -155 3 -47 8 -107 10 -135 3 -27 8 -90 10
-140 2 -49 7 -128 9 -175 3 -47 8 -134 11 -195 3 -60 8 -144 10 -185 42 -782
50 -2056 20 -3210 -5 -175 -21 -589 -30 -755 -17 -305 -15 -273 -30 -500 -12
-180 -16 -233 -21 -285 -2 -30 -7 -86 -9 -125 -3 -38 -7 -88 -9 -110 -6 -56
-19 -200 -31 -330 -3 -38 -8 -81 -10 -95 -4 -25 -14 -120 -20 -189 -5 -53 -19
-170 -30 -241 -2 -14 -6 -52 -10 -85 -3 -33 -10 -89 -16 -125 -5 -36 -12 -76
-14 -90 -2 -14 -6 -47 -10 -75 -3 -27 -12 -88 -20 -135 -7 -47 -17 -107 -21
-135 -4 -27 -8 -52 -9 -55 0 -3 -4 -27 -9 -53 -4 -27 -9 -59 -12 -70 -2 -12
-9 -49 -14 -82 -17 -104 -20 -119 -26 -145 -3 -14 -8 -38 -11 -55 -4 -28 -16
-84 -29 -145 -7 -35 -44 -212 -48 -237 -11 -53 -100 -411 -132 -528 -19 -71
-41 -155 -49 -186 -8 -31 -18 -67 -24 -80 -5 -13 -17 -51 -27 -84 -21 -75
-142 -440 -159 -480 -7 -16 -41 -102 -75 -190 -278 -713 -647 -1331 -1099
-1840 -58 -64 -290 -297 -362 -361 -115 -104 -132 -118 -259 -217 -386 -302
-854 -565 -1335 -750 -139 -53 -331 -121 -405 -142 -84 -25 -335 -96 -350
-100 -47 -11 -197 -47 -210 -50 -200 -43 -351 -71 -420 -80 -24 -3 -46 -7 -49
-10 -4 -2 -43 -8 -87 -14 -44 -7 -91 -14 -104 -16 -37 -7 -202 -28 -310 -40
-30 -3 -71 -8 -90 -10 -19 -2 -64 -7 -100 -10 -36 -3 -85 -8 -110 -10 -25 -3
-85 -8 -135 -11 -49 -3 -108 -7 -130 -9 -164 -14 -459 -19 -1014 -20 l-644 0
1 12130 c0 6672 1 12136 1 12144 1 11 71 13 439 8 240 -4 460 -8 487 -10z"/>
</g>
</svg>
