<?xml version="1.0" encoding="utf-8"?>
<!-- Generator: Adobe Illustrator 19.0.0, SVG Export Plug-In . SVG Version: 6.00 Build 0)  -->
<svg version="1.1" id="Layer_1" xmlns="http://www.w3.org/2000/svg" xmlns:xlink="http://www.w3.org/1999/xlink" x="0px" y="0px"
	 viewBox="0 0 527.4 363.3" style="enable-background:new 0 0 527.4 363.3;" xml:space="preserve">
<path id="XMLID_1_" style="fill:#FFFFFF;stroke:#231F20;stroke-width:3;stroke-miterlimit:10;" d="M10.7,214.3V329
	c0,11.2,9.1,20.3,20.3,20.3h114.7c11.2,0,20.3-9.1,20.3-20.3V214.3c0-11.2-9.1-20.3-20.3-20.3H30.9C19.7,194,10.7,203.1,10.7,214.3z
	"/>
<path id="XMLID_3_" style="fill:#FFFFFF;stroke:#231F20;stroke-width:3;stroke-miterlimit:10;" d="M186.1,214.3V329
	c0,11.2,9.1,20.3,20.3,20.3h114.7c11.2,0,20.3-9.1,20.3-20.3V214.3c0-11.2-9.1-20.3-20.3-20.3H206.3
	C195.2,194,186.1,203.1,186.1,214.3z"/>
<path id="XMLID_4_" style="fill:#FFFFFF;stroke:#231F20;stroke-width:3;stroke-miterlimit:10;" d="M361.5,214.3V329
	c0,11.2,9.1,20.3,20.3,20.3h114.7c11.2,0,20.3-9.1,20.3-20.3V214.3c0-11.2-9.1-20.3-20.3-20.3H381.8
	C370.6,194,361.5,203.1,361.5,214.3z"/>
<path id="XMLID_5_" style="fill:#FFFFFF;stroke:#231F20;stroke-width:3;stroke-miterlimit:10;" d="M206.3,173.8h114.7
	c11.2,0,20.3-9.1,20.3-20.3V38.8c0-11.2-9.1-20.3-20.3-20.3H206.3c-11.2,0-20.3,9.1-20.3,20.3v114.7
	C186.1,164.8,195.2,173.8,206.3,173.8z"/>
<g id="XMLID_2_">
	<g id="XMLID_34_">
		
			<line id="XMLID_37_" style="fill:none;stroke:#231F20;stroke-width:3;stroke-miterlimit:10;" x1="263.7" y1="141.1" x2="263.7" y2="72.8"/>
		<g id="XMLID_35_">
			<polygon id="XMLID_36_" style="fill:#231F20;" points="278.7,77.2 263.7,51.3 248.7,77.2 			"/>
		</g>
	</g>
</g>
<g id="XMLID_7_">
	<g id="XMLID_29_">
		
			<line id="XMLID_32_" style="fill:none;stroke:#231F20;stroke-width:3;stroke-miterlimit:10;" x1="263.7" y1="226.7" x2="263.7" y2="295"/>
		<g id="XMLID_30_">
			<polygon id="XMLID_31_" style="fill:#231F20;" points="248.7,290.6 263.7,316.5 278.7,290.6 			"/>
		</g>
	</g>
</g>
<g id="XMLID_8_">
	<g id="XMLID_24_">
		
			<line id="XMLID_27_" style="fill:none;stroke:#231F20;stroke-width:3;stroke-miterlimit:10;" x1="394.2" y1="271.6" x2="462.5" y2="271.6"/>
		<g id="XMLID_25_">
			<polygon id="XMLID_26_" style="fill:#231F20;" points="458.1,286.6 484.1,271.6 458.1,256.7 			"/>
		</g>
	</g>
</g>
<g id="XMLID_14_">
	<g id="XMLID_19_">
		
			<line id="XMLID_22_" style="fill:none;stroke:#231F20;stroke-width:3;stroke-miterlimit:10;" x1="133.2" y1="271.6" x2="64.9" y2="271.6"/>
		<g id="XMLID_20_">
			<polygon id="XMLID_21_" style="fill:#231F20;" points="69.3,256.7 43.4,271.6 69.3,286.6 			"/>
		</g>
	</g>
</g>
</svg>
