<?xml version="1.0" encoding="utf-8"?>
<!-- Generator: Adobe Illustrator 19.0.0, SVG Export Plug-In . SVG Version: 6.00 Build 0)  -->
<svg version="1.1" id="Layer_1" xmlns="http://www.w3.org/2000/svg" xmlns:xlink="http://www.w3.org/1999/xlink" x="0px" y="0px"
	 viewBox="-909 491 100 100" style="enable-background:new -909 491 100 100;" xml:space="preserve">
<style type="text/css">
	.st0{display:none;}
	.st1{display:inline;}
	.st2{display:inline;fill:#242424;}
	.st3{fill:#FFFFFF;}
	.st4{fill:none;stroke:#FFFFFF;stroke-width:4.0724;stroke-miterlimit:10;}
</style>
<g class="st0">
	<g class="st1">
		<path d="M-1787,1014.3v-24.4c0-1.2-0.8-2.2-2-2.2s-2,1-2,2.2v24.5c-3,0.9-5.4,3.8-5.4,7.1c0,4.1,3.3,7.5,7.4,7.5s7.4-3.3,7.4-7.5
			C-1781.6,1018.1-1784,1015.3-1787,1014.3z M-1789.1,1024.5c-1.7,0-3.1-1.4-3.1-3.1c0-1.7,1.4-3.1,3.1-3.1c1.7,0,3.1,1.4,3.1,3.1
			C-1786,1023.2-1787.4,1024.5-1789.1,1024.5z"/>
		<path d="M-1789,1035.1c-1.2,0-2,1-2,2.2v36.9c0,1.2,0.8,2.2,2,2.2s2-1,2-2.2v-36.9C-1787,1036.1-1787.8,1035.1-1789,1035.1z"/>
		<path d="M-1766,1035.4v-45.5c0-1.2-0.8-2.2-2-2.2s-2,1-2,2.2v45.5c-3,0.9-5.4,3.8-5.4,7.1c0,4.1,3.3,7.5,7.4,7.5s7.3-3.3,7.3-7.5
			C-1760.6,1039.2-1763,1036.3-1766,1035.4z M-1768,1045.6c-1.7,0-3.1-1.4-3.1-3.1s1.4-3.1,3.1-3.1s3.1,1.4,3.1,3.1
			S-1766.3,1045.6-1768,1045.6z"/>
		<path d="M-1768,1056.1c-1.2,0-2,1-2,2.2v15.8c0,1.2,0.8,2.2,2,2.2s2-1,2-2.2v-15.8C-1766,1057.1-1766.8,1056.1-1768,1056.1z"/>
		<path d="M-1745,998.5v-8.6c0-1.2-0.8-2.2-2-2.2s-2,1-2,2.2v8.7c-3,0.9-5.3,3.8-5.3,7.1c0,4.1,3.3,7.5,7.4,7.5
			c4.1,0,7.3-3.3,7.3-7.5C-1739.6,1002.3-1742,999.5-1745,998.5z M-1746.9,1008.7c-1.7,0-3.1-1.4-3.1-3.1c0-1.7,1.4-3.1,3.1-3.1
			c1.7,0,3.1,1.4,3.1,3.1C-1743.9,1007.4-1745.2,1008.7-1746.9,1008.7z"/>
		<path d="M-1747,1019.3c-1.2,0-2,1-2,2.2v52.7c0,1.2,0.8,2.2,2,2.2s2-1,2-2.2v-52.7C-1745,1020.3-1745.8,1019.3-1747,1019.3z"/>
	</g>
</g>
<g class="st0">
	<g class="st1">
		<path d="M-1733,1007.7c0.1,0,0.1-0.2,0.2-0.2c0.1,0,0.2-0.1,0.2-0.1c0.1,0,0.2-0.1,0.2-0.1c0.1,0,0.1-0.1,0.2-0.1
			c0.2-0.2,0.5-0.4,0.6-0.6c0-0.1,0.1-0.1,0.1-0.2c0-0.1,0.1-0.1,0.1-0.2c0-0.1,0-0.2,0.1-0.2c0-0.1,0.1-0.1,0.1-0.2
			c0-0.1,0.1-0.3,0.1-0.4l0,0l0,0c0-0.1-0.1-0.3-0.1-0.4s-0.1-0.1-0.1-0.2c0-0.1-0.1-0.2-0.1-0.2c0-0.1-0.1-0.1-0.1-0.2
			c0-0.1-0.1-0.1-0.1-0.2c-0.1-0.1-0.2-0.2-0.3-0.3l-18-18c-0.1-0.1-0.2-0.2-0.3-0.3c0,0-0.1-0.1-0.2-0.1c-0.1,0-0.2-0.1-0.2-0.1
			c-0.1,0-0.1,0-0.2-0.1c-0.1,0-0.1,0-0.2-0.1c-0.1,0-0.3,0-0.4,0h-41.3c-5-0.2-9.3,3.8-9.3,8.7v76.7c0,4.9,4.3,9.4,9.3,9.4h52.7
			c4.9,0,9.1-4.5,9.1-9.4V1021c0-1.2-1.3-2.3-2.5-2.3s-2.5,1-2.5,2.3v49.6c0,2.4-1.7,4.4-4.1,4.4h-52.7c-2.4,0-4.3-2-4.3-4.4v-76.7
			c0-2.4,1.8-3.9,4.3-3.9h38.7v8.6c0,4.9,4.3,9.4,9.3,9.4h11.3C-1733.3,1008-1733.1,1007.7-1733,1007.7z M-1749,998.6v-5.9
			l10.1,10.3h-5.9C-1747.2,1003-1749,1001-1749,998.6z"/>
		<path d="M-1787.4,1008h24c1.2,0,2.3-1.3,2.3-2.5s-1-2.5-2.3-2.5h-24c-1.2,0-2.3,1.3-2.3,2.5S-1788.7,1008-1787.4,1008z"/>
		<path d="M-1743.2,1017.5c0-1.2-1-2.5-2.3-2.5h-42c-1.2,0-2.3,1.3-2.3,2.5s1,2.5,2.3,2.5h42
			C-1744.2,1020-1743.2,1018.7-1743.2,1017.5z"/>
		<path d="M-1787.4,1032h30c1.2,0,2.3-1.3,2.3-2.5s-1-2.5-2.3-2.5h-30c-1.2,0-2.3,1.3-2.3,2.5S-1788.7,1032-1787.4,1032z"/>
		<path d="M-1749.2,1041.5c0-1.2-1-2.5-2.3-2.5h-36c-1.2,0-2.3,1.3-2.3,2.5s1,2.5,2.3,2.5h36
			C-1750.2,1044-1749.2,1042.7-1749.2,1041.5z"/>
		<path d="M-1755.2,1053.5c0-1.2-1-2.5-2.3-2.5h-30c-1.2,0-2.3,1.3-2.3,2.5s1,2.5,2.3,2.5h30
			C-1756.2,1056-1755.2,1054.7-1755.2,1053.5z"/>
		<path d="M-1787.4,1063c-1.2,0-2.3,1.3-2.3,2.5s1,2.5,2.3,2.5h12c1.2,0,2.3-1.3,2.3-2.5s-1-2.5-2.3-2.5H-1787.4z"/>
	</g>
</g>
<g class="st0">
	<g class="st1">
		<path d="M-1733.9,1007.2c0.1,0,0.1,0.1,0.2,0.1c0.1,0,0.2,0,0.2,0c0.1,0,0.1,0,0.2-0.1c0.1,0,0.1,0,0.2-0.1
			c0.2-0.2,0.5-0.4,0.6-0.6c0-0.1,0.1-0.1,0.1-0.2c0-0.1,0.1-0.1,0.1-0.2c0-0.1,0-0.2,0.1-0.2c0-0.1,0-0.2,0.1-0.3
			c0-0.1,0.1-0.5,0.1-0.5l0,0v0.2c0-0.1,0-0.3-0.1-0.4c0-0.1-0.1-0.1-0.1-0.2c0-0.1,0-0.1-0.1-0.2c0-0.1-0.1-0.1-0.1-0.2
			c0-0.1-0.1-0.1-0.1-0.2c-0.1-0.1-0.2-0.2-0.3-0.3l-17.8-18.1c-0.1-0.1-0.2-0.2-0.3-0.3c-0.1,0-0.1-0.1-0.2-0.1s-0.1-0.1-0.2-0.1
			c-0.1,0-0.2,0-0.2-0.1c-0.1,0-0.1-0.1-0.2-0.1c-0.2,0.1-0.3,0-0.5,0l0,0h-41c-4.9,0-8.8,4.1-8.8,8.9v76.1c0,4.9,3.9,8.9,8.8,8.9
			h52.3c4.9,0,8.9-4.1,8.9-8.9v-49.2c0-1.2-1.3-2.2-2.5-2.2s-2.5,1-2.5,2.2v49.2c0,2.4-1.5,3.9-3.9,3.9h-52.3
			c-2.4,0-4.8-1.5-4.8-3.9v-76.1c0-2.4,2.4-3.9,4.8-3.9h39.2v8.6c0,4.9,3.6,8.4,8.4,8.4h11.2
			C-1734.2,1007-1734,1007.2-1733.9,1007.2z M-1750,998.6v-5.8l10.3,10.2h-5.8C-1748,1003-1750,1001-1750,998.6z"/>
		<path d="M-1787.9,1007h23.8c1.2,0,2.2-0.8,2.2-2s-1-2-2.2-2h-23.8c-1.2,0-2.2,0.8-2.2,2S-1789.1,1007-1787.9,1007z"/>
		<path d="M-1746.2,1015h-41.7c-1.2,0-2.2,0.8-2.2,2s1,2,2.2,2h41.7c1.2,0,2.2-0.8,2.2-2S-1745,1015-1746.2,1015z"/>
		<path d="M-1746.2,1027h-41.7c-1.2,0-2.1,0.8-2.1,2v35.7c0,0.1-0.1,0.3,0,0.4c0,0.1,0,0.1,0,0.2c0,0.1,0,0.2,0.1,0.2
			c0,0.1,0.1,0.1,0.1,0.2s0,0.1,0.1,0.2c0.2,0.2,0.4,0.5,0.6,0.6c0.1,0,0.1,0.1,0.2,0.1c0.1,0,0.1,0.1,0.2,0.1s0.1,0,0.2,0.1
			c0.1,0,0.1,0,0.2,0.1c0.1,0,0.3,0,0.4,0h41.7c1.2,0,2.2-1,2.2-2.2V1029C-1744,1027.8-1745,1027-1746.2,1027z M-1751.2,1063
			l-13.5-13.7c0.2,0.1,0.4,0,0.6,0c0.6,0,1.1-0.3,1.6-0.7l4.6-4.4l9.9,9.6v9.2H-1751.2L-1751.2,1063z M-1770,1050.5l12.4,12.5h-24.9
			L-1770,1050.5z M-1756.3,1039.3c-0.4-0.4-1.1-0.7-1.7-0.7s-1.2,0.2-1.6,0.7l-6,6c-0.6,0.6-0.8,1.5-0.6,2.2l-2.2-2.2
			c-0.9-0.9-2.5-0.9-3.3,0l-14.3,14V1031h38v16.4L-1756.3,1039.3z"/>
	</g>
</g>
<g class="st0">
	<g class="st1">
		<path d="M-1768,1013.4c7.6,0,14.5,4.7,17.3,11.8c0.5,1.2,1.8,1.8,3,1.3c1.2-0.5,1.8-1.8,1.3-3c-3.4-8.9-12.1-14.8-21.6-14.8
			c-12.8,0-23.3,10.5-23.3,23.3c0,12.8,10.5,23.3,23.3,23.3c9.6,0,18.1-5.7,21.6-14.6c0.5-1.2-0.1-2.5-1.3-3c-1.2-0.5-2.5,0.1-3,1.3
			c-2.8,7-9.8,11.7-17.3,11.7c-10.3,0-18.6-8.4-18.6-18.6C-1786.6,1021.7-1778.3,1013.4-1768,1013.4z"/>
		<path d="M-1801.3,995.4c-0.9-0.9-2.4-0.9-3.3,0c-0.9,0.9-0.9,2.4,0,3.3l7,7c0.5,0.5,1.1,0.7,1.6,0.7c0.6,0,1.2-0.2,1.6-0.7
			c0.9-0.9,0.9-2.4,0-3.3L-1801.3,995.4z"/>
		<path d="M-1740,1006.4c0.6,0,1.2-0.2,1.6-0.7l7-7c0.9-0.9,0.9-2.4,0-3.3s-2.4-0.9-3.3,0l-7,7c-0.9,0.9-0.9,2.4,0,3.3
			C-1741.2,1006.1-1740.6,1006.4-1740,1006.4z"/>
		<path d="M-1797.6,1058.3l-7,7c-0.9,0.9-0.9,2.4,0,3.3c0.5,0.5,1.1,0.7,1.6,0.7s1.2-0.2,1.6-0.7l7-7c0.9-0.9,0.9-2.4,0-3.3
			C-1795.2,1057.4-1796.7,1057.4-1797.6,1058.3z"/>
		<path d="M-1738.4,1058.3c-0.9-0.9-2.4-0.9-3.3,0c-0.9,0.9-0.9,2.4,0,3.3l7,7c0.5,0.5,1.1,0.7,1.6,0.7c0.6,0,1.2-0.2,1.6-0.7
			c0.9-0.9,0.9-2.4,0-3.3L-1738.4,1058.3z"/>
		<path d="M-1800.6,1032c0-1.3-1-2-2.3-2h-9.9c-1.3,0-2.3,0.7-2.3,2s1,2,2.3,2h9.8C-1801.7,1034-1800.6,1033.3-1800.6,1032z"/>
		<path d="M-1768,1064.6c-1.3,0-2,1-2,2.3v9.9c0,1.3,0.7,2.3,2,2.3s2-1,2-2.3v-9.8C-1766,1065.7-1766.7,1064.6-1768,1064.6z"/>
		<path d="M-1768,999.4c1.3,0,2-1,2-2.3v-9.9c0-1.3-0.7-2.3-2-2.3s-2,1-2,2.3v9.8C-1770,998.3-1769.3,999.4-1768,999.4z"/>
		<path d="M-1723.2,1030h-9.8c-1.3,0-2.3,0.7-2.3,2s1,2,2.3,2h9.9c1.3,0,2.3-0.7,2.3-2S-1721.9,1030-1723.2,1030z"/>
	</g>
</g>
<g class="st0">
	<g class="st1">
		<path d="M-1749.4,1030h-10c-1.3,0-2.4,1.2-2.4,2.5s1.1,2.5,2.4,2.5h10c1.3,0,2.4-1.2,2.4-2.5S-1748.1,1030-1749.4,1030z"/>
		<path d="M-1751.1,1041.3c-1.1-0.7-2.6-0.3-3.2,0.8c-3.4,5.8-9.6,9.3-16.3,9.3c-10.4,0-18.9-8.5-18.9-18.9
			c0-10.4,8.5-18.9,18.9-18.9c6.5,0,12.6,3.4,16,8.9c0.7,1.1,2.2,1.4,3.3,0.7c1.1-0.7,1.4-2.2,0.8-3.3c-4.5-6.9-12-11.1-20.2-11.1
			c-13,0-23.7,10.6-23.7,23.7c0,13.1,10.6,23.7,23.7,23.7c8.3,0,16.2-4.5,20.4-11.7C-1749.6,1043.4-1750,1041.9-1751.1,1041.3z"/>
	</g>
</g>
<g class="st0">
	<g class="st1">
		<path d="M-1727.6,1010.9l-16.5-16.5c-2.7-2.7-7-2.7-9.7,0l-52.7,52.7c-2.7,2.7-2.7,7,0,9.7l16.5,16.5c0.3,0.3,0.7,0.4,1.1,0.4
			s0.8-0.1,1.1-0.4c0.6-0.6,0.6-1.5,0-2.1l-16.6-16.5c-1.5-1.5-1.5-4,0-5.5l1.2-1.2l11,11c0.6,0.6,1.5,0.6,2.1,0
			c0.6-0.6,0.6-1.5,0-2.1l-11-11l3.9-3.9l5,5c0.6,0.6,1.5,0.6,2.1,0c0.6-0.6,0.6-1.5,0-2.1l-5-5l3.9-3.9l11,11
			c0.6,0.6,1.5,0.6,2.1,0c0.6-0.6,0.6-1.5,0-2.1l-11-11l3.9-3.9l5,5c0.6,0.6,1.5,0.6,2.1,0c0.6-0.6,0.6-1.5,0-2.1l-5-5l3.9-3.9
			l11,11c0.6,0.6,1.5,0.6,2.1,0c0.6-0.6,0.6-1.5,0-2.1l-11-11l3.9-3.9l5,5c0.6,0.6,1.5,0.6,2.1,0c0.6-0.6,0.6-1.5,0-2.1l-5-5
			l3.9-3.9l11,11c0.6,0.6,1.5,0.6,2.1,0c0.6-0.6,0.6-1.5,0-2.1l-11-11l3.9-3.9l5,5c0.3,0.3,0.7,0.4,1.1,0.4c0.4,0,0.8-0.1,1.1-0.4
			c0.6-0.6,0.6-1.5,0-2.1l-5-5l3.9-3.9l11,11c0.3,0.3,0.7,0.4,1.1,0.4c0.4,0,0.8-0.1,1.1-0.4c0.6-0.6,0.6-1.5,0-2.1l-11-11l1.2-1.2
			c1.5-1.5,4-1.5,5.5,0l16.5,16.3c0.7,0.7,1.1,1.7,1.1,2.7s-0.4,2-1.1,2.7l-48.3,48.3c-0.6,0.6-0.6,1.5,0,2.1
			c0.3,0.3,0.7,0.4,1.1,0.4c0.4,0,0.8-0.1,1.1-0.4l48.2-48.2C-1724.9,1017.9-1724.9,1013.6-1727.6,1010.9z"/>
	</g>
</g>
<g class="st0">
	<g class="st1">
		<path d="M-1732.5,1006.1c-0.6-0.6-1.5-0.6-2.1,0s-0.6,1.5,0,2.1c0.7,0.7,1,1.6,1,2.5s-0.4,1.8-1,2.4c0,0,0-0.1-0.1-0.1l-5.7-5.7
			c-0.6-0.6-1.5-0.6-2.1,0c-0.6,0.6-0.6,1.5,0,2.1l5.7,5.7c0,0,0.1,0,0.1,0.1l-41.1,41.3l-11.6-11.6l43.2-43.2
			c0.6-0.6,0.6-1.5,0-2.1c-0.6-0.6-1.5-0.6-2.1,0l-44.3,44.2l0,0c-0.1,0.1-0.2,0.3-0.3,0.4c0,0,0,0,0,0.1c0,0,0,0,0,0.1l-6.8,20.5
			l0,0c0,0.1,0,0.1,0,0.2v0.1v0.1v0.1v0.1c0,0.1,0,0.1,0,0.2l0,0l0,0c0,0.1,0.1,0.3,0.2,0.4l0,0c0.1,0.1,0.2,0.2,0.3,0.3
			c0,0,0,0,0.1,0.1c0.1,0.1,0.2,0.1,0.4,0.2l0,0c0.1,0,0.3,0.1,0.5,0.1s0.3,0,0.5-0.1l0,0l20.3-6.7c0,0,0,0,0.1,0c0,0,0,0,0.1,0
			c0.2-0.1,0.3-0.2,0.4-0.3l0,0l44.3-44.3c1.2-1.2,1.9-2.9,1.9-4.6C-1730.6,1009-1731.2,1007.3-1732.5,1006.1z M-1796,1063.1
			l5.1-15.4l10.2,10.2L-1796,1063.1z"/>
		<path d="M-1748.1,1013.1l-17.1,17.1c-0.6,0.6-0.6,1.5,0,2.1c0.3,0.3,0.7,0.4,1.1,0.4s0.8-0.1,1.1-0.4l17-17.1
			c0.6-0.6,0.6-1.5,0-2.1S-1747.5,1012.5-1748.1,1013.1z"/>
		<path d="M-1770.9,1035.9l-5.7,5.7c-0.6,0.6-0.6,1.5,0,2.1c0.3,0.3,0.7,0.4,1.1,0.4c0.4,0,0.8-0.1,1.1-0.4l5.7-5.7
			c0.6-0.6,0.6-1.5,0-2.1S-1770.3,1035.3-1770.9,1035.9z"/>
	</g>
</g>
<g class="st0">
	<g class="st1">
		<path d="M-1725.7,1030.2c-0.7-1-16.3-24.7-43.3-24.7s-42.6,23.7-43.3,24.7l-0.5,0.8l0.5,0.8c0.7,1,16.3,24.7,43.3,24.7
			s42.6-23.7,43.3-24.7l0.5-0.8L-1725.7,1030.2z M-1769,1053.5c-22.6,0-37.2-18.4-40.2-22.5c3-4.1,17.5-22.5,40.2-22.5
			c22.6,0,37.2,18.4,40.2,22.5C-1731.8,1035.1-1746.3,1053.5-1769,1053.5z"/>
		<path d="M-1757.1,1028.9c-0.8,0-1.5,0.8-1.4,1.6c0,0.2,0,0.4,0,0.5c0,5.8-4.7,10.5-10.5,10.5s-10.5-4.7-10.5-10.5
			s4.7-10.5,10.5-10.5c1.9,0,3.8,0.5,5.5,1.6c0.7,0.4,1.6,0.2,2.1-0.5s0.2-1.6-0.5-2.1c-2.1-1.3-4.6-2-7.1-2
			c-7.4,0-13.5,6.1-13.5,13.5s6.1,13.5,13.5,13.5s13.5-6.1,13.5-13.5c0-0.2,0-0.5,0-0.7C-1755.6,1029.5-1756.3,1028.9-1757.1,1028.9
			z"/>
	</g>
</g>
<g class="st0">
	<g class="st1">
		<path d="M-1733.9,1066.2l-24.6-24.6c-0.8-0.8-2.1-0.8-2.9,0c-0.8,0.8-0.8,2.1,0,2.9l24.7,24.7c0.4,0.4,0.9,0.6,1.5,0.6
			c0.5,0,1.1-0.2,1.5-0.6C-1733,1068.3-1733,1067-1733.9,1066.2z"/>
		<path d="M-1778.5,1001.9c12.5,0,22.6,10.1,22.6,22.6c0,3.2-0.6,6.2-1.9,9.1c-0.5,1,0,2.3,1.1,2.7c1,0.5,2.3,0,2.7-1.1
			c1.5-3.4,2.3-7,2.3-10.8c0-14.7-12-26.7-26.7-26.7c-14.7,0-26.7,12-26.7,26.7c0,14.7,12,26.7,26.7,26.7c3.7,0,7.3-0.8,10.8-2.3
			c1-0.5,1.5-1.7,1.1-2.7c-0.5-1-1.7-1.5-2.7-1.1c-2.9,1.3-5.9,1.9-9.1,1.9c-12.7,0.2-22.8-9.9-22.8-22.4
			C-1801.1,1012-1791,1001.9-1778.5,1001.9z"/>
	</g>
</g>
<g class="st0">
	<g class="st1">
		<path d="M-1769,994.4c-17.2,0-31.2,14-31.2,31.2c0,16.8,28.4,43.9,29.6,45l1.7,1.6l1.7-1.6c1.2-1.1,29.6-28.2,29.6-45
			C-1737.8,1008.4-1751.8,994.4-1769,994.4z M-1769,1065.5c-8.7-8.5-26.4-28.4-26.4-39.9c0-14.6,11.8-26.4,26.4-26.4
			s26.4,11.9,26.4,26.4C-1742.6,1037-1760.3,1057-1769,1065.5z"/>
		<path d="M-1754.9,1021.8c-1.3,0.1-2.3,1.3-2.1,2.6c0,0.4,0.1,0.8,0.1,1.2c0,6.6-5.4,12-12,12s-12-5.4-12-12s5.4-12,12-12
			c2.5,0,4.8,0.7,6.8,2.1c1.1,0.8,2.6,0.5,3.3-0.6c0.8-1.1,0.5-2.6-0.6-3.3c-2.8-2-6.1-3-9.6-3c-9.3,0-16.8,7.5-16.8,16.8
			c0,9.3,7.5,16.8,16.8,16.8s16.8-7.5,16.8-16.8c0-0.6,0-1.1-0.1-1.7C-1752.4,1022.6-1753.6,1021.6-1754.9,1021.8z"/>
	</g>
</g>
<g class="st0">
	<g class="st1">
		<path d="M-1765.4,1049.6l-14.8,14.8c-4.5,4.5-11.9,4.5-16.5,0c-4.5-4.5-4.5-11.9,0-16.5l14.8-14.8c0.9-0.9,0.9-2.4,0-3.3
			c-0.9-0.9-2.4-0.9-3.3,0l-14.8,14.9c-6.4,6.4-6.4,16.7,0,23c3.2,3.2,7.3,4.8,11.5,4.8s8.3-1.6,11.5-4.8l14.8-14.8
			c0.9-0.9,0.9-2.4,0-3.3C-1763.1,1048.7-1764.5,1048.7-1765.4,1049.6z"/>
		<path d="M-1732.5,1000.3c-6.4-6.4-16.7-6.4-23,0l-14.9,14.8c-0.9,0.9-0.9,2.4,0,3.3c0.9,0.9,2.4,0.9,3.3,0l14.8-14.8
			c4.5-4.5,11.9-4.5,16.5,0c4.5,4.5,4.5,11.9,0,16.5l-14.8,14.7c-0.9,0.9-0.9,2.4,0,3.3c0.5,0.5,1.1,0.7,1.6,0.7s1.2-0.2,1.6-0.7
			l14.8-14.8C-1726.2,1017-1726.2,1006.6-1732.5,1000.3z"/>
		<path d="M-1785.2,1052.9c0.5,0.5,1.1,0.7,1.6,0.7c0.6,0,1.2-0.2,1.6-0.7l34.6-34.6c0.9-0.9,0.9-2.4,0-3.3c-0.9-0.9-2.4-0.9-3.3,0
			l-34.5,34.6C-1786.1,1050.5-1786.1,1052-1785.2,1052.9z"/>
	</g>
</g>
<g class="st0">
	<g class="st1">
		<path d="M-1766,1046.4c6.8,0,12.4-5.6,12.4-12.4s-5.6-12.4-12.4-12.4c-1.1,0-2,0.9-2,2s0.9,2,2,2c4.6,0,8.4,3.8,8.4,8.4
			s-3.8,8.4-8.4,8.4s-8.4-3.8-8.4-8.4c0-2.2,0.9-4.3,2.4-5.9c0.8-0.8,0.8-2,0-2.8c-0.8-0.8-2-0.8-2.8,0c-2.3,2.3-3.5,5.4-3.5,8.7
			C-1778.4,1040.8-1772.8,1046.4-1766,1046.4z"/>
		<path d="M-1724.4,1032h-8.5c-0.5-8-3.5-14.6-8.3-20l5.2-5.2c0.8-0.8,0.8-2,0-2.8s-2-0.8-2.8,0l-5.2,5.2c-5.4-4.8-12-7.9-20-8.3
			v-8.5c0-1.1-0.9-2-2-2s-2,0.9-2,2v23.8c0,1.1,0.9,2,2,2s2-0.9,2-2v-11.4c7,0.4,12.5,3.1,17.2,7.2l-5,5c-0.8,0.8-0.8,2,0,2.8
			c0.4,0.4,0.9,0.6,1.4,0.6s1-0.2,1.4-0.6l5-5c4.1,4.7,6.7,10.2,7.2,17.2h-11.4c-1.1,0-2,0.9-2,2s0.9,2,2,2h11.3
			c-0.4,7-3.1,12.5-7.2,17.2l-5-5c-0.8-0.8-2-0.8-2.8,0c-0.8,0.8-0.8,2,0,2.8l5,5c-4.6,4.1-10.1,6.7-17.1,7.2v-11.4c0-1.1-0.9-2-2-2
			c-1.1,0-2,0.9-2,2v11.3c-7-0.4-12.5-3.1-17.2-7.2l5-5c0.8-0.8,0.8-2,0-2.8s-2-0.8-2.8,0l-5,5c-4.1-4.6-6.7-10.1-7.2-17.1h11.3
			c1.1,0,2-0.9,2-2s-0.9-2-2-2h-11.3c0.4-6,2.9-12.4,7.1-17.2l5,5c0.4,0.4,0.9,0.6,1.4,0.6s1-0.2,1.4-0.6c0.8-0.8,0.8-2,0-2.8
			l-13-13c-0.8-0.8-2-0.8-2.8,0c-0.8,0.8-0.8,2,0,2.8l5.2,5.2c-5,5.6-7.9,13-8.3,20h-8.5c-1.1,0-2,0.9-2,2s0.9,2,2,2h8.5
			c0.5,8,3.5,14.6,8.3,20l-5.1,5.2c-0.8,0.8-0.8,2,0,2.8c0.4,0.4,0.9,0.6,1.4,0.6s1-0.2,1.4-0.6l5.2-5.2c5.4,4.8,12,7.9,20,8.3v8.5
			c0,1.1,0.9,2,2,2c1.1,0,2-0.9,2-2v-8.5c8-0.5,14.6-3.5,20-8.3l5.2,5.2c0.4,0.4,0.9,0.6,1.4,0.6s1-0.2,1.4-0.6c0.8-0.8,0.8-2,0-2.8
			l-5.2-5.2c4.8-5.4,7.9-12,8.3-20h8.5c1.1,0,2-0.9,2-2S-1723.3,1032-1724.4,1032z"/>
	</g>
</g>
<g class="st0">
	<g class="st1">
		<path d="M-1728,1029c-1.2,0-2,0.9-2,2.1v19.6c0,1.9-1.9,3.3-3.8,3.3h-64.4c-1.9,0-3.8-1.4-3.8-3.3v-19.6c0-1.2-0.8-2.1-2-2.1
			s-2,0.9-2,2.1v19.6c0,4.2,3.6,7.3,7.8,7.3h64.3c4.2,0,7.8-3.1,7.8-7.3v-19.6C-1726,1029.9-1726.8,1029-1728,1029z"/>
		<path d="M-1766,1045.8c1.2,0,2-0.9,2-2.1v-26.4l9.1,9c0.4,0.4,1,0.6,1.5,0.6s1.1-0.2,1.5-0.6c0.8-0.8,0.8-2.1,0-3l-12.6-12.6
			c-0.1-0.1-0.2-0.2-0.3-0.3c0,0-0.1-0.1-0.2-0.1s-0.1-0.1-0.2-0.1c-0.1,0-0.1,0-0.2-0.1c-0.1,0-0.1,0-0.2-0.1
			c-0.3-0.1-0.6-0.1-0.8,0c-0.1,0-0.1,0-0.2,0.1c-0.1,0-0.1,0-0.2,0.1c-0.1,0-0.1,0.1-0.2,0.1c-0.1,0-0.1,0.1-0.2,0.1
			c-0.2,0.2-0.4,0.4-0.6,0.6c0,0.1-0.1,0.1-0.1,0.2c0,0.1-0.1,0.1-0.1,0.2c0,0.1,0,0.1-0.1,0.2c0,0.1,0,0.1-0.1,0.2
			c0,0.1,0,0.3,0,0.4l0,0v31.5C-1768,1044.8-1767.2,1045.8-1766,1045.8z"/>
		<path d="M-1778.6,1026.9c0.5,0,1.1-0.2,1.5-0.6l6.3-6.3c0.8-0.8,0.8-2.1,0-3c-0.8-0.8-2.1-0.8-3,0l-6.3,6.3c-0.8,0.8-0.8,2.1,0,3
			C-1779.7,1026.7-1779.1,1026.9-1778.6,1026.9z"/>
	</g>
</g>
<g class="st0">
	<g class="st1">
		<path d="M-1728,1029c-1.2,0-2,0.9-2,2.1v19.6c0,1.9-1.8,3.3-3.8,3.3h-64.4c-1.9,0-3.8-1.4-3.8-3.3v-19.6c0-1.2-0.8-2.1-2-2.1
			s-2,0.9-2,2.1v19.6c0,4.2,3.5,7.3,7.8,7.3h64.4c4.2,0,7.8-3,7.8-7.3v-19.6C-1726,1029.9-1726.8,1029-1728,1029z"/>
		<path d="M-1773.8,1038.9c0.4,0.4,0.9,0.6,1.5,0.6c0.6,0,1.1-0.2,1.5-0.6c0.8-0.8,0.8-2.2,0-3l-6.3-6.3c-0.8-0.8-2.2-0.8-3,0
			c-0.8,0.8-0.8,2.2,0,3L-1773.8,1038.9z"/>
		<path d="M-1768.1,1044.1c0,0.1,0,0.1,0.1,0.2c0,0.1,0,0.1,0.1,0.2c0,0.1,0.1,0.1,0.1,0.2c0,0.1,0.1,0.1,0.1,0.2
			c0.2,0.2,0.4,0.4,0.6,0.6c0.1,0,0.1,0.1,0.2,0.1c0.1,0,0.1,0.1,0.2,0.1s0.1,0,0.2,0.1c0.1,0,0.1,0,0.2,0.1c0.1,0,0.3,0,0.4,0
			s0.3,0,0.4,0s0.1,0,0.2-0.1c0.1,0,0.1,0,0.2-0.1c0.1,0,0.1-0.1,0.2-0.1c0.1,0,0.1-0.1,0.2-0.1c0.1-0.1,0.2-0.2,0.3-0.3l12.6-12.6
			c0.8-0.8,0.8-2.2,0-3c-0.8-0.8-2.2-0.8-3,0l-9.1,9v-26.4c0-1.2-0.8-2.1-2-2.1c-1.2,0-2,0.9-2,2.1v31.5l0,0
			C-1768,1043.9-1768.1,1044-1768.1,1044.1z"/>
	</g>
</g>
<g class="st0">
	<g class="st1">
		<path d="M-1732.1,1015h-17.9c-1.7,0-3-0.9-3-2.6v-8.4h-19.2c-3.7,0-6.8,3.4-6.8,7.2v1.2c0,1.7-1.3,2.6-3,2.6h-17.9
			c-1,0-1.9,1-1.9,2s0.8,2,1.9,2h17.9c3.7,0,7-2.9,7-6.6v-1.2c0-1.7,1.1-3.2,2.8-3.2h15.2v4.4c0,3.7,3.3,6.6,7,6.6h17.9
			c1.7,0,3.1,1.6,3.1,3.3v34.6c0,1.7-1.4,3.2-3.1,3.2h-67.8c-1.7,0-3.1-1.4-3.1-3.1c0-0.1,0-0.2,0-0.3c0-0.1,0-0.2,0-0.3v-28
			c0-1-1-1.9-2-1.9s-2,0.8-2,1.9v27.8c0,0.1,0.1,0.2,0.2,0.3c0,0.1,0,0.4,0,0.5c0,3.7,3.1,7,6.9,7h67.9c3.7,0,7.1-3.4,7.1-7.2v-34.5
			C-1725,1018.5-1728.3,1015-1732.1,1015z"/>
		<path d="M-1775.2,1033.1c-0.9-0.4-2-0.1-2.5,0.9c-0.8,1.7-1.3,3.7-1.3,5.6c0,7.1,5.8,13,13,13c7.1,0,13-5.8,13-13
			c0-7.1-5.8-13-13-13c-2.2,0-4.3,0.5-6.2,1.6c-0.9,0.5-1.2,1.6-0.7,2.5s1.6,1.2,2.5,0.7c1.4-0.7,2.9-1.1,4.4-1.1
			c5.1,0,9.3,4.2,9.3,9.3s-4.2,9.3-9.3,9.3s-9.3-4.2-9.3-9.3c0-1.4,0.3-2.8,0.9-4C-1773.9,1034.6-1774.3,1033.5-1775.2,1033.1z"/>
		<path d="M-1749.3,1030h11.1c1,0,1.9-0.5,1.9-1.5s-0.9-1.5-1.9-1.5h-11.1c-1,0-1.9,0.5-1.9,1.5S-1750.4,1030-1749.3,1030z"/>
		<path d="M-1749.3,1041h11.1c1,0,1.9-0.5,1.9-1.5s-0.9-1.5-1.9-1.5h-11.1c-1,0-1.9,0.5-1.9,1.5S-1750.4,1041-1749.3,1041z"/>
		<path d="M-1749.3,1053h5.6c1,0,1.9-1,1.9-2s-0.8-2-1.9-2h-5.6c-1,0-1.9,1-1.9,2S-1750.4,1053-1749.3,1053z"/>
	</g>
</g>
<g class="st0">
	<g class="st1">
		<path d="M-1724.7,1065.2l-5.2-47c-0.4-4-3.8-7.2-7.9-7.2h-6.7c-2.8-11-10.9-19.4-20.5-19.4c-9.6,0-17.7,8.4-20.5,19.4h-6.7
			c-1.2,0-2.2,1.3-2.2,2.5s1,2.5,2.2,2.5h5.9c-0.2,1-0.3,2.7-0.3,4.2c0,1.2,1,2.1,2.2,2.1s2.2-0.9,2.2-2.1c0-1.5,0.1-3.2,0.3-4.2
			h33.9c0.2,1,0.3,2.7,0.3,4.2c0,1.2,1,2.1,2.2,2.1s2.2-0.9,2.2-2.1c0-1.5-0.1-3.2-0.3-4.2h5.9c1.8,0,3.4,1.2,3.6,3.1l5.1,46.7
			c0.1,1-0.2,2.1-0.9,2.9s-1.6,1.3-2.7,1.3h-64.8c-1,0-2-0.6-2.7-1.4c-0.7-0.8-1-1.8-0.9-2.7l5.8-32.5c0.2-1.2-0.6-2.3-1.7-2.5
			c-1.2-0.2-2.3,0.6-2.5,1.7l-5.8,32.6c-0.2,2.2,0.5,4.5,2,6.1c1.5,1.7,3.6,2.6,5.9,2.6h64.8c2.2,0,4.4-1,5.9-2.6
			C-1725.2,1069.7-1724.5,1067.4-1724.7,1065.2z M-1781.1,1011c2.5-8,8.8-15.1,16.1-15.1s13.6,7.1,16.1,15.1H-1781.1z"/>
	</g>
</g>
<g class="st0">
	<g class="st1">
		<path d="M-1731.4,1000.4l-18.4-4.6c-1.2-0.3-2.4-0.1-3.4,0.5c-1-0.6-2.2-0.8-3.4-0.5l-18.5,4.6c-0.7,0.2-1.3,0.5-1.8,1
			c-0.5-0.4-1.1-0.8-1.8-1l-18.5-4.6c-1.4-0.3-2.8,0-4,0.8c-1.1,0.9-1.8,2.2-1.8,3.6c0,1.1,0.9,2,2,2c1.1,0,2-0.9,2-2
			c0-0.3,0.2-0.4,0.3-0.5c0.1-0.1,0.3-0.2,0.6-0.1l18.7,4.6c0.3,0.1,0.7,0.3,0.7,0.6v43.3c-6-0.8-8.1-5.6-8.1-15.7c0-1.1-1-2-2.1-2
			s-1.8,0.9-1.8,2c0,5.1,0,18.4,12,19.7v12.6c0,0.3-0.3,0.4-0.4,0.5c-0.1,0.1-0.4,0.2-0.7,0.1l-18.4-4.6c-0.3-0.1-0.5-0.3-0.5-0.6
			v-45.4c0-1.1-0.9-2-2-2s-2,0.9-2,2v45.5c0,2.1,1.4,4,3.4,4.5l18.4,4.6c0.4,0.1,0.7,0.1,1.1,0.1c1,0,2-0.3,2.8-1l0.1-0.1l0.1,0.1
			c0.8,0.6,1.8,1,2.8,1c0.4,0,0.8,0,1.1-0.1l18.5-4.6c0.4-0.1,0.8-0.3,1.2-0.5c0.4,0.2,0.8,0.4,1.2,0.5l18.5,4.6
			c0.4,0.1,0.8,0.1,1.1,0.1c1,0,2-0.3,2.8-1c1.1-0.9,1.7-2.2,1.7-3.6v-59.9C-1728,1002.7-1729.4,1000.9-1731.4,1000.4z
			 M-1774.4,1004.4l18.6-4.4l0,0c0.1,0-0.1-0.2,0-0.2c0,0.2-0.3,0.2-0.3,0.5v18.7c-6,1.2-11.1,6.9-11.1,13.6c0,7.5-2.9,14-7.9,15.5
			v-43.2C-1775,1004.6-1774.7,1004.5-1774.4,1004.4z M-1773.9,1065.4c-0.3,0.1-0.6,0-0.7-0.1c-0.1-0.1-0.4-0.3-0.4-0.5v-12.7
			c7-1.3,11.8-9.4,11.8-19.6c0-4.5,3.2-8.4,7.2-9.5v37.2c0,0.2,0.2,0.4,0.3,0.7L-1773.9,1065.4z M-1732,1064.8
			c0,0.3-0.1,0.4-0.2,0.5c-0.1,0.1-0.3,0.2-0.5,0.1l-18.4-4.6c0-0.2,0.1-0.4,0.1-0.7V1023c4,1,6.3,3.9,7.1,7.5l-1.1-1.1
			c-0.8-0.8-2-0.8-2.8,0s-0.8,2,0,2.8l3.1,3.1l-3.5,2.8c-0.8,0.7-1,1.9-0.3,2.8c0.4,0.5,1,0.7,1.5,0.7c0.4,0,0.9-0.1,1.2-0.4
			l3.8-3.1l3.4,3.4c0.4,0.4,0.9,0.6,1.4,0.6s1-0.2,1.4-0.6c0.8-0.8,0.8-2,0-2.8l-3.1-3.1l3.5-2.8c0.8-0.7,1-1.9,0.3-2.8
			c-0.7-0.8-1.9-1-2.8-0.3l-2,1.6c-0.4-6.2-5.1-11.2-11.1-12.4v-18.7c0-0.2,0-0.4,0-0.7c0,0,0,0,0.1,0c0.1,0,0.1,0,0.2,0l18.4,4.6
			c0.3,0.1,0.4,0.3,0.4,0.6L-1732,1064.8L-1732,1064.8z"/>
	</g>
</g>
<g class="st0">
	<g class="st1">
		<path d="M-1751.8,1018.6c1.2-2.7,2.1-5.5,2.1-8.2c0-10.1-6.7-18.3-15.1-18.3c-8.4,0-15.1,8.2-15.1,18.3c0,3,0.6,5.7,1.5,8.1
			c-8.5,2.2-14.6,10-14.6,18.8v24.4c0,1.2,0.8,2.2,2,2.2c1.2,0,2-1,2-2.2v-24.4c0-7.6,6.1-14.2,13.9-15l3.3-0.3l-1.8-2.9
			c-1.4-2.3-2.1-5.3-2.1-8.6c0-7.7,4.9-14,10.8-14c6,0,10.8,6.3,10.8,14c0,3.5-1.5,6.7-2.7,8.6l-1.8,2.9l3.4,0.3
			c7.6,0.7,13.2,7.2,13.2,15v24.4c0,1.2,0.8,2.2,2,2.2s2-1,2-2.2v-24.4C-1738,1028.3-1743.6,1020.8-1751.8,1018.6z"/>
		<path d="M-1779.2,1063.7l-6.5,6.5c-0.8,0.8-0.8,2.2,0,3c0.4,0.4,1,0.6,1.5,0.6c0.6,0,1.1-0.2,1.5-0.6l6.5-6.5c0.8-0.8,0.8-2.2,0-3
			C-1777,1062.9-1778.4,1062.9-1779.2,1063.7z"/>
		<path d="M-1765,1063.1c-1.2,0-2,1-2,2.2v6.5c0,1.2,0.8,2.2,2,2.2s2-1,2-2.2v-6.5C-1763,1064.1-1763.8,1063.1-1765,1063.1z"/>
		<path d="M-1750.4,1063.7c-0.8-0.8-2.2-0.8-3,0c-0.8,0.8-0.8,2.2,0,3l6.5,6.5c0.4,0.4,1,0.6,1.5,0.6c0.6,0,1.1-0.2,1.5-0.6
			c0.8-0.8,0.8-2.2,0-3L-1750.4,1063.7z"/>
	</g>
</g>
<g class="st0">
	<g class="st1">
		<path d="M-1730.5,1034h-48.9c-1-7-7.2-12.5-14.7-12.5c-8.2,0-14.8,6.7-14.8,14.9s6.7,14.9,14.8,14.9c0.9,0,1.9-0.1,2.8-0.2
			c1.1-0.2,1.9-1.3,1.7-2.5c-0.2-1.2-1.3-1.9-2.5-1.7c-0.6,0.1-1.3,0.2-2,0.2c-5.8,0-10.6-4.8-10.6-10.6c0-5.8,4.8-10.6,10.6-10.6
			c5.8,0,10.6,4.8,10.6,10.6c0,2.2-0.7,4.4-2,6.2c-0.7,0.9-0.5,2.3,0.5,3c0.9,0.7,2.3,0.7,3-0.3c1.4-2,2.3-4.4,2.7-6.4h21.3v6
			c0,1.2,0.8,2.1,2,2.1c1.2,0,2-0.9,2-2.1v-6h2v10.2c0,1.2,1.3,2.1,2.5,2.1c1.2,0,2.5-0.9,2.5-2.1V1039h2v6c0,1.2,0.8,2.1,2,2.1
			c1.2,0,2-0.9,2-2.1v-6h2v10.2c0,1.2,0.8,2.1,2,2.1c1.2,0,2-0.9,2-2.1V1039h4.5c1.2,0,2.1-1.3,2.1-2.5S-1729.3,1034-1730.5,1034z"
			/>
	</g>
</g>
<g class="st0">
	<g class="st1">
		<path d="M-1746.2,1022.2c-2.3,0-4.5,0.5-6.4,1.4l-21.5-18.6c0.9-1.6,1.4-3.4,1.4-5.4c0-6.1-5-11.1-11.1-11.1c-0.5,0-1,0-1.4,0.1
			c-1.3,0.2-2.2,1.3-2,2.6c0.2,1.3,1.3,2.2,2.6,2c0.3,0,0.6-0.1,0.8-0.1c3.6,0,6.5,2.9,6.5,6.5c0,3.6-2.9,6.5-6.5,6.5
			s-6.5-2.9-6.5-6.5c0-0.8,0.2-1.7,0.5-2.4c0.5-1.2-0.1-2.5-1.3-3c-1.2-0.5-2.6,0.1-3,1.3c-0.5,1.3-0.8,2.7-0.8,4.2
			c0,6.1,5,11.1,11.1,11.1c2.5,0,4.8-0.8,6.7-2.2l20.5,17.8c-3.1,2.8-5.1,6.9-5.1,11.5c0,2.9,0.8,5.7,2.3,8l-23.6,9.9
			c-1.9-3.3-5.5-5.5-9.6-5.5c-6.1,0-11.2,5-11.2,11.1c0,6.1,5,11.2,11.2,11.2c6.1,0,11.1-5,11.1-11.2c0-0.4,0-0.8-0.1-1.2l25.2-10.6
			c2.7,2.4,6.3,3.8,10.2,3.8c8.6,0,15.6-7,15.6-15.6C-1730.7,1029.2-1737.6,1022.2-1746.2,1022.2z M-1792.7,1067.9
			c-3.6,0-6.5-2.9-6.5-6.5s2.9-6.5,6.5-6.5c3.6,0,6.5,2.9,6.5,6.5S-1789.1,1067.9-1792.7,1067.9z M-1746.2,1048.7
			c-6,0-10.9-4.9-10.9-10.9s4.9-10.9,10.9-10.9s10.9,4.9,10.9,10.9S-1740.2,1048.7-1746.2,1048.7z"/>
	</g>
</g>
<g class="st0">
	<g class="st1">
		<path d="M-1738,1002.2c-2.3-2.3-5.6-3-8.6-1.8c0,0,0,0-0.1,0l-21.2,7.8c-1.4,0.5-2.1,2.1-1.6,3.4c0.4,1.1,1.4,1.8,2.5,1.8
			c0.3,0,0.6-0.1,0.9-0.2l21.2-7.8l0,0c0,0,0,0,0.1,0c1.5-0.6,2.6,0.3,2.9,0.6s1.2,1.4,0.6,2.9l-12.9,31.8l-9.1-7
			c-0.1,0-0.1-0.1-0.2-0.1c-0.1-0.1-0.2-0.1-0.3-0.2c-0.1,0-0.2-0.1-0.3-0.1c-0.1,0-0.1-0.1-0.2-0.1l0,0c-0.1,0-0.2,0-0.3-0.1
			c-0.1,0-0.1,0-0.2,0s-0.2,0-0.3,0c-0.1,0-0.1,0-0.2,0s-0.2,0-0.3,0.1c-0.1,0-0.1,0-0.2,0s-0.2,0.1-0.3,0.1c-0.1,0-0.1,0-0.2,0.1
			c-0.1,0-0.1,0.1-0.2,0.1c-0.1,0-0.1,0.1-0.2,0.2l-0.1,0.1c-0.1,0.1-0.2,0.2-0.2,0.3l0,0c0,0-0.1,0.1-0.1,0.2
			c-0.1,0.1-0.1,0.2-0.2,0.3c0,0.1-0.1,0.2-0.1,0.3c0,0.1-0.1,0.1-0.1,0.2l-4.6,16.1l-3.4,1.4l6.7-23.3c0-0.1,0-0.1,0-0.2
			s0-0.2,0.1-0.3c0-0.1,0-0.2,0-0.3s0-0.2,0-0.3c0-0.1,0-0.2,0-0.3s0-0.2-0.1-0.3c0-0.1-0.1-0.2-0.1-0.2c0-0.1-0.1-0.2-0.1-0.2
			c0-0.1-0.1-0.2-0.2-0.2c0-0.1-0.1-0.1-0.1-0.2l-8.3-10.5c0-0.1,0-0.2-0.1-0.2c-0.4-0.9-1.2-1.5-2.2-1.6c-0.8-0.2-1.6,0-2.3,0.5
			c-0.1,0.1-0.3,0.2-0.4,0.4c-1.4,0.9-2.5,2.2-3.1,3.7l-14.1,34.4c-1.3,3.1-0.6,6.4,1.8,8.8c1.6,1.6,3.6,2.4,5.7,2.4
			c1,0,2.1-0.2,3.1-0.6l34.5-14.2c2-0.8,3.6-2.4,4.4-4.4l14.1-34.5C-1734.9,1007.9-1735.6,1004.6-1738,1002.2z"/>
	</g>
</g>
<g class="st0">
	<g class="st1">
		<path d="M-1757.6,994.1c-2.8-1.4-6.1-1-8.5,1l-21.8,17.3c-0.6,0.5-1.5,0.6-2.3,0.6h-11.1c-1.2,0-2.2,1.3-2.2,2.5s1,2.5,2.2,2.5
			h11.1c1.8,0,3.6-0.8,5-1.9l21.8-17.5c1.1-0.9,2.8-1.1,4.1-0.5c1.3,0.6,2.3,1.8,2.3,3.3v61.2c0,1.4-1,2.7-2.3,3.3
			c-1.3,0.6-2.9,0.5-4-0.4l-21.8-17.6c-1.4-1.1-3.3-1.9-5.1-1.9h-11.1c-2,0-3.7-1.4-3.7-3.4v-16.7c0-1.2-0.8-2.2-2-2.2
			c-1.2,0-2,1-2,2.2v16.7c0,4.4,3.2,8.4,7.7,8.4h11.1c0.8,0,1.6,0.1,2.3,0.6l21.8,17.4c1.5,1.2,3.2,1.7,5,1.7c1.2,0,2.4-0.3,3.5-0.8
			c2.8-1.4,4.6-4.2,4.6-7.3v-61.2C-1753,998.3-1754.8,995.5-1757.6,994.1z"/>
		<path d="M-1733.9,1034.1l6.3-6.3c0.9-0.9,0.9-2.2,0-3.1c-0.9-0.9-2.2-0.9-3.1,0l-6.3,6.3l-6.3-6.3c-0.9-0.9-2.2-0.9-3.1,0
			c-0.9,0.9-0.9,2.2,0,3.1l6.3,6.3l-6.3,6.3c-0.9,0.9-0.9,2.2,0,3.1c0.4,0.4,1,0.6,1.6,0.6c0.6,0,1.1-0.2,1.6-0.6l6.3-6.3l6.3,6.3
			c0.4,0.4,1,0.6,1.6,0.6c0.6,0,1.1-0.2,1.6-0.6c0.9-0.9,0.9-2.2,0-3.1L-1733.9,1034.1z"/>
	</g>
</g>
<g class="st0">
	<g class="st1">
		<path d="M-1728.3,1016c-1.3-1.8-3.3-3-5.5-3h-45.4c-1,0-1.9,1-1.9,2s0.8,2,1.9,2h45.4c1,0,1.9,0.5,2.5,1.3
			c0.6,0.8,0.7,1.9,0.4,2.8l-7.9,23.7c-0.4,1.3-1.6,2.2-2.9,2.2h-34c-1.3,0-2.5-0.9-2.9-2.1l-15.6-41.5l0,0c0-0.1-0.1-0.1-0.1-0.2
			c0,0,0-0.1-0.1-0.1c0-0.1-0.1-0.1-0.1-0.1l-0.1-0.1l-0.1-0.1l-0.1-0.1l-0.1-0.1c-0.1,0-0.1-0.1-0.2-0.1h-0.1c-0.1,0-0.1,0-0.2-0.1
			h-0.1c-0.1,0-0.2-0.1-0.2-0.1v-0.1h-11.5c-1,0-1.9,1-1.9,2s0.8,2,1.9,2h9.9l15.1,40.3c0.5,1.4,1.6,2.6,2.8,3.4
			c-1.1,1.3-1.7,2.9-1.7,4.8c0,4.1,3.3,7.5,7.5,7.5c4.1,0,7.5-3.2,7.5-7.3c0-1.4-0.4-2.6-1-3.6h15.1c-0.6,1-1,2.2-1,3.6
			c0,4.1,3.3,7.4,7.5,7.4s7.5-3.4,7.5-7.5c0-1.5-0.5-3-1.3-4.1c1.9-0.7,3.5-2.2,4.2-4.3l7.9-23.7
			C-1726.6,1020.2-1727,1017.8-1728.3,1016z M-1769.9,1054.4c0,2.1-1.7,3.7-3.7,3.7c-2.1,0-3.7-1.7-3.7-3.7c0-2.1,1.7-3.7,3.7-3.7
			C-1771.5,1050.6-1769.9,1052.3-1769.9,1054.4z M-1745.6,1058.1c-2.1,0-3.7-1.7-3.7-3.7c0-2.1,1.7-3.7,3.7-3.7
			c2.1,0,3.7,1.7,3.7,3.7S-1743.6,1058.1-1745.6,1058.1z"/>
	</g>
</g>
<g class="st0">
	<g class="st1">
		<path d="M-1784.1,990h-16.9c-4.9,0-9,4-9,9c0,1.2,1,2.2,2.2,2.2c1.2,0,2.2-1.2,2.2-2.4c0-2.5,2.1-4.8,4.6-4.8h16.9
			c2.5,0,4.1,2.4,4.1,5v16.9c0,2.5-1.6,4.1-4.1,4.1h-16.9c-2.5,0-4.6-1.8-4.6-4.4c0-1.2-1-2.1-2.2-2.1c-1.2,0.1-2.2,1.2-2.2,2.4
			c0,4.9,4,9.1,9,9.1h16.9c4.9,0,9.1-4.2,9.1-9.1V999C-1775,994-1779.2,990-1784.1,990z"/>
		<path d="M-1784.1,1036h-16.9c-4.9,0-9,3.7-9,8.6v16.9c0,4.9,4,8.5,9,8.5h16.9c4.9,0,9.1-3.5,9.1-8.5v-16.9
			C-1775,1039.7-1779.2,1036-1784.1,1036z M-1780,1061.5c0,2.5-1.6,4.5-4.1,4.5h-16.9c-2.5,0-5-1.9-5-4.5v-16.9c0-2.5,2.4-4.6,5-4.6
			h16.9c2.5,0,4.1,2.1,4.1,4.6V1061.5z"/>
		<path d="M-1755.4,1025h16.9c4.9,0,8.5-4.2,8.5-9.1V999c0-4.9-3.5-9-8.5-9h-16.9c-4.9,0-8.6,4-8.6,9v16.9
			C-1764,1020.8-1760.3,1025-1755.4,1025z M-1760,999c0-2.5,2.1-5,4.6-5h16.9c2.5,0,4.5,2.4,4.5,5v16.9c0,2.5-1.9,4.1-4.5,4.1h-16.9
			c-2.5,0-4.6-1.6-4.6-4.1V999z"/>
		<path d="M-1728.6,1046.8l-12-12c-1.7-1.7-3.9-2.6-6.3-2.6c-2.4,0-4.6,0.9-6.3,2.6l-12,12c-1.7,1.7-2.6,3.9-2.6,6.3
			s0.9,4.6,2.6,6.3l12,12c1.7,1.7,3.9,2.6,6.3,2.6c2.4,0,4.6-0.9,6.3-2.6l12-12c1.7-1.7,2.6-3.9,2.6-6.3
			S-1726.9,1048.4-1728.6,1046.8z M-1731.7,1056.3l-12,12c-1.8,1.8-4.7,1.8-6.5,0l-12-12c-1.8-1.8-1.8-4.7,0-6.5l12-12
			c0.9-0.9,2.1-1.3,3.2-1.3c1.2,0,2.3,0.4,3.2,1.3l12,12C-1729.9,1051.6-1729.9,1054.5-1731.7,1056.3z"/>
	</g>
</g>
<g class="st0">
	<g class="st1">
		<path d="M-1739.6,1022.9l-44.7-29.7c-3.4-2.2-7.6-2.4-11.2-0.5c-3.5,1.9-5.8,5.6-5.8,9.6c0,1.6,1.3,3,3,3c1.7,0,3-1.3,3-3
			c0-1.9,1-3.5,2.6-4.4c1.6-0.9,3.5-0.8,5.1,0.2l44.7,29.8c1.4,0.9,2.2,2.4,2.2,4.1s-0.8,3.2-2.2,4.1l-44.7,29.8
			c-1.5,1-3.3,1.1-4.9,0.2c-1.6-0.9-2.5-2.5-2.5-4.4v-38.9c0-1.6-1.4-3-3-3c-1.6,0-3,1.3-3,3v38.9c0,4,2.1,7.7,5.6,9.6
			c1.6,0.9,3.3,1.3,5.1,1.3c2.1,0,4.2-0.6,6-1.8l44.6-29.8c3-2,4.8-5.4,4.8-9.1C-1734.9,1028.2-1736.6,1025-1739.6,1022.9z"/>
	</g>
</g>
<g class="st0">
	<g class="st1">
		<path d="M-1738,1001.3c-1.6,0-3,1.3-3,2.9v19.7c0-0.2-0.4-0.5-0.7-0.7l-43.1-28.8c-3.2-2.2-7.3-2.4-10.8-0.5
			c-3.4,1.8-5.5,5.4-5.5,9.3c0,1.6,1.3,2.9,2.9,2.9c1.6,0,2.9-1.3,2.9-2.9c0-1.8,0.9-3.4,2.5-4.2c1.6-0.8,3.4-0.8,4.9,0.2l43.2,28.8
			c1.4,0.9,2.1,2.4,2.1,4s-0.8,3.1-2.1,4l-43.2,28.8c-1.5,1-3.2,1.1-4.7,0.2c-1.6-0.8-2.4-2.4-2.4-4.2v-37.7c0-1.6-1.4-2.9-3-2.9
			c-1.6,0-3,1.3-3,2.9v37.7c0,3.9,2.1,7.5,5.5,9.3c1.6,0.8,3.2,1.2,5,1.2c2,0,4.1-0.6,5.8-1.8l43-28.8c0.3-0.2,0.7-0.4,0.7-0.7v20.7
			c0,1.6,1.4,2.9,3,2.9c1.6,0,3-1.3,3-2.9v-56.5C-1735,1002.6-1736.4,1001.3-1738,1001.3z"/>
	</g>
</g>
<g class="st0">
	<g class="st1">
		<path d="M-1740.4,995c-3.4-1.8-7.4-1.6-10.6,0.5c-0.1,0.1-0.2,0.1-0.3,0.2l-29.6,19.8c-1.3,0.9-1.7,2.6-0.8,3.9
			c0.5,0.8,1.4,1.3,2.4,1.3c0.5,0,1.1-0.2,1.6-0.5l30-20l0,0c1.5-1,3.5-1,5-0.2c1.6,0.8,2.7,2.4,2.7,4.2v56.6c0,1.8-1.1,3.3-2.7,4.2
			c-1.6,0.8-3.5,0.7-4.9-0.2l-42.6-28.4c-1.3-0.9-2.1-2.3-2.1-3.9c0-1.6,0.8-3,2.1-3.9c1.3-0.9,1.6-2.6,0.8-3.9
			c-0.9-1.3-2.5-1.7-3.8-0.8c-0.4,0.1-0.8,0.4-0.8,0.6v-19.4c0-1.6-1.4-2.8-3-2.8c-1.6,0-3,1.3-3,2.8v55.7c0,1.6,1.4,2.8,3,2.8
			c1.6,0,3-1.3,3-2.8v-20.3c0,0.2,0.4,0.4,0.7,0.6l42.4,28.3c1.7,1.2,3.7,1.7,5.7,1.7c1.7,0,3.2-0.4,4.8-1.2
			c3.4-1.8,5.3-5.3,5.3-9.1v-56.7C-1735,1000.3-1737,996.8-1740.4,995z"/>
	</g>
</g>
<g class="st0">
	<g class="st1">
		<path d="M-1773,1002c0-5-4-9-9-9h-2c-5,0-9,4-9,9v61c0,5,4,9,9,9h2c5,0,9-4,9-9V1002z M-1778,1061.9c0,2.3-1.8,4.1-4.1,4.1h-1.8
			c-2.3,0-4.1-1.8-4.1-4.1v-60.8c0-2.3,1.8-4.1,4.1-4.1h1.8c2.3,0,4.1,1.8,4.1,4.1V1061.9z"/>
		<path d="M-1743,1002c0-5-4-9-9-9h-2c-5,0-9,4-9,9v61c0,5,4,9,9,9h2c5,0,9-4,9-9V1002z M-1748,1061.9c0,2.3-1.8,4.1-4.1,4.1h-1.8
			c-2.3,0-4.1-1.8-4.1-4.1v-60.8c0-2.3,1.8-4.1,4.1-4.1h1.8c2.3,0,4.1,1.8,4.1,4.1V1061.9z"/>
	</g>
</g>
<g class="st0">
	<g class="st1">
		<path d="M-1767.5,1058.9c7.9,0,14.5-6.4,14.5-14.4v-42.4c0-7.9-6.6-14.4-14.5-14.4c-1.2,0-2.3,1-2.3,2.2s0.8,2.2,2,2.2
			c5.5,0,9.7,4.4,9.7,9.9v42.5c0,4.7-3,8.6-7,9.7v-17c0-1.2-1.3-2.2-2.5-2.2s-2.5,1-2.5,2.2v17c-4-1-7-4.8-7-9v-42.5
			c0-1.2-1.3-2.2-2.5-2.2s-2.5,1-2.5,2.2v42.5C-1782,1052.6-1775.3,1058.9-1767.5,1058.9z"/>
		<path d="M-1743.8,1049.6c-1.2,0-2.2,0.7-2.2,1.9c0,5.5-4.4,9.6-9.9,9.6h-22.5c-5.5,0-9.9-4.1-9.9-9.6c0-1.2-1-2.1-2.2-2.1
			c-1.2,0-2.2,0.5-2.2,1.7c-0.1,7.9,6.4,13.9,14.3,13.9h8.4v10h-3.4c-1.2,0-2.2,0.8-2.2,2c0,1.2,1,2,2.2,2h12.5c1.2,0,2.2-0.8,2.2-2
			c0-1.2-1-2-2.2-2h-4.1v-10h9c7.9,0,14.4-5.9,14.4-13.8C-1741.6,1050-1742.6,1049.6-1743.8,1049.6z"/>
	</g>
</g>
<g class="st0">
	<path class="st2" d="M-1740.9,1005.1c0-0.1,0.1-0.2,0.1-0.2c0-0.1,0.1-0.1,0.1-0.2c0-0.1-0.2-0.2-0.2-0.2c0-0.1-0.2-0.1-0.2-0.2
		l0,0c0-0.1,0.2-0.1,0.2-0.2c0-0.1,0.1-0.2,0.1-0.2c0-0.1,0-0.1,0-0.2c0-0.1-0.1-0.2-0.2-0.2h-0.1l0,0h0.1v-0.1c0-0.3,0-0.4,0-0.4
		c0-0.1-0.1-0.1-0.1-0.2c0-0.1-0.1-0.1-0.1-0.2l0,0l0,0c-0.1-0.1-0.1-0.1-0.2-0.1c-0.1,0-0.1-0.1-0.2-0.1c-0.1,0-0.2-0.1-0.2-0.1
		l-0.1-0.1v-0.1l0,0v0.1c-0.1,0-0.2,0-0.2,0c-0.1,0-0.1,0-0.2,0c-0.1,0-0.1,0-0.2,0s-0.2,0-0.3,0h-0.1c-0.1,0-0.2,0-0.3,0h-0.1
		c-0.1,0-0.2,0-0.3,0.1l0,0l0,0l0,0l-61.6,26.1c0,0,0,0-0.1,0c-0.1,0-0.1,0.1-0.2,0.1s-0.1,0.1-0.2,0.1c-0.1,0-0.1,0.1-0.2,0.1
		c-0.1,0.1-0.1,0.1-0.2,0.2l-0.1,0.1c-0.1,0.1-0.1,0.1-0.1,0.2c0,0.1-0.1,0.1-0.1,0.2s-0.1,0.2-0.1,0.2s0,0,0,0.1v0.1
		c0,0.1,0,0.2-0.1,0.3c0,0.1,0,0.1,0,0.2c0,0.1,0,0.2,0,0.2c0,0.1,0,0.1,0,0.2c0,0.1,0,0.1,0,0.2s0,0.2,0.1,0.2v0.1l0,0
		c0.1,0.2,0.2,0.4,0.3,0.5l0.1,0.1c0.1,0.1,0.2,0.2,0.4,0.3l0.1,0.1c0.1,0.1,0.3,0.2,0.5,0.2l25.2,8.4l8.4,25.2l0,0
		c0.1,0.2,0.2,0.4,0.3,0.6l0.1,0.1c0.1,0.2,0.3,0.3,0.4,0.4l0,0c0.1,0.1,0.3,0.2,0.4,0.2h0.1c0,0,0.2,0,0.3,0
		c0.2,0.1-0.3,0.1,0.7,0.1v-0.2v0.8h-0.2c0.2,0,0.5-0.1,0.7-0.1l0,0c0.2-0.1,0.3-0.1,0.5-0.2l0.1-0.1c0.1-0.1,0.3-0.2,0.4-0.3
		l0.1-0.1c0.1-0.2,0.2-0.3,0.3-0.5l0,0L-1740.9,1005.1L-1740.9,1005.1L-1740.9,1005.1L-1740.9,1005.1z M-1769,1059.2l-6.4-19.2
		l25.6-25.6L-1769,1059.2z"/>
</g>
<g class="st0">
	<g class="st1">
		<path d="M-1798.7,1045.1c1.1,0,1.9-0.9,1.9-1.9c0-0.9,0.3-1.7,0.9-2.3l39.5-39.5c0.8-0.8,0.8-2,0-2.7c-0.8-0.8-2-0.8-2.7,0
			l-39.4,39.4c-1.3,1.3-2.1,3.1-2.1,5C-1800.6,1044.2-1799.7,1045.1-1798.7,1045.1z"/>
		<path d="M-1731.3,1007.3l-9.1-9.1c-0.8-0.8-2-0.8-2.7,0c-0.8,0.8-0.8,2,0,2.7l9.1,9.1c0.6,0.6,0.9,1.4,0.9,2.3
			c0,0.9-0.3,1.7-0.9,2.3l-44,44c-0.6,0.6-1.4,0.9-2.3,0.9l-14.9,2.6c-1.7-0.1-3.1-1.5-3.1-3.2c0-1.1-0.9-1.9-1.9-1.9
			c-1.1,0-1.9,0.9-1.9,1.9c0,3.9,3.2,7.1,7.1,7.1h0.2l14.7-2.6c1.8,0,3.5-0.8,4.8-2.1l44-44c1.3-1.3,2.1-3.1,2.1-5
			C-1729.2,1010.5-1730,1008.7-1731.3,1007.3z"/>
		<path d="M-1780,1037.8l5,5c1.3,1.3,3.1,2.1,5,2.1s3.7-0.7,5-2.1l25-25c0.8-0.8,0.8-2,0-2.7c-0.8-0.8-2-0.8-2.7,0l-25,25
			c-1.2,1.2-3.3,1.2-4.6,0l-5-5c-1.3-1.3-1.3-3.3,0-4.6l29.6-29.5c0.8-0.8,0.8-2,0-2.7c-0.8-0.8-2-0.8-2.7,0l-29.6,29.5
			C-1782.8,1030.6-1782.8,1035.1-1780,1037.8z"/>
	</g>
</g>
<g>
	<g>
		<g>
			<path class="st3" d="M-836.9,528.7c-1.1,0.5-1.5,1.9-1,2.9c1.4,2.9,2.2,6.5,2.2,10.4c0,4-0.9,7.9-2.4,10.8
				c-0.6,1.1-0.2,2.4,0.9,3c0.3,0.2,0.7,0.3,1,0.3c0.8,0,1.5-0.4,1.9-1.2c1.9-3.5,2.9-8.1,2.9-12.9c0-4.5-0.9-8.9-2.7-12.3
				C-834.5,528.5-835.8,528.2-836.9,528.7z"/>
			<path class="st3" d="M-826.2,516.9c-0.5-1.1-1.9-1.5-2.9-1c-1.1,0.5-1.5,1.9-1,2.9c3,6,4.6,13.7,4.6,21.7
				c0,8.4-1.8,16.5-5.1,22.6c-0.6,1.1-0.2,2.4,0.9,3c0.3,0.2,0.7,0.3,1,0.3c0.8,0,1.5-0.4,1.9-1.2c3.6-6.7,5.6-15.5,5.6-24.6
				C-821.1,531.9-823,523.5-826.2,516.9z"/>
			<path class="st3" d="M-844,535.5c-1.1,0.5-1.5,1.9-1,2.9s0.8,2.5,0.8,3.9c0,1.5-0.3,3-0.9,4.1s-0.2,2.4,0.9,3
				c0.3,0.2,0.7,0.3,1,0.3c0.8,0,1.5-0.4,1.9-1.2c0.9-1.7,1.4-3.9,1.4-6.2c0-2.1-0.5-4.2-1.3-5.9C-841.6,535.5-842.9,535-844,535.5z
				"/>
		</g>
	</g>
	<path class="st4" d="M-894.7,529.7h11c0.5,0,0.9-0.2,1.3-0.4l18.7-14.2c1.4-1.1,3.5-0.1,3.5,1.7v48.5c0,1.8-2.1,2.8-3.5,1.7
		l-18.4-14.4c-0.4-0.3-0.9-0.5-1.3-0.5h-11.3c-1.2,0-2.2-1-2.2-2.2v-18C-896.8,530.5-895.9,529.7-894.7,529.7z"/>
</g>
</svg>
