<?xml version="1.0" encoding="utf-8"?>
<!-- Generator: Adobe Illustrator 19.0.0, SVG Export Plug-In . SVG Version: 6.00 Build 0)  -->
<svg version="1.1" id="Layer_1" xmlns="http://www.w3.org/2000/svg" xmlns:xlink="http://www.w3.org/1999/xlink" x="0px" y="0px"
	 viewBox="-909 491 100 100" style="enable-background:new -909 491 100 100;" xml:space="preserve">
<style type="text/css">
	.st0{display:none;}
	.st1{display:inline;}
	.st2{display:inline;fill:#242424;}
	.st3{fill:none;stroke:#FFFFFF;stroke-width:4.0724;stroke-miterlimit:10;}
	.st4{fill:none;stroke:#FFFFFF;stroke-width:4.072;stroke-linecap:round;stroke-miterlimit:10;}
</style>
<g class="st0">
	<g class="st1">
		<path d="M-878,523.3v-24.4c0-1.2-0.8-2.2-2-2.2s-2,1-2,2.2v24.5c-3,0.9-5.4,3.8-5.4,7.1c0,4.1,3.3,7.5,7.4,7.5s7.4-3.3,7.4-7.5
			C-872.6,527.1-875,524.3-878,523.3z M-880.1,533.5c-1.7,0-3.1-1.4-3.1-3.1c0-1.7,1.4-3.1,3.1-3.1c1.7,0,3.1,1.4,3.1,3.1
			C-877,532.2-878.4,533.5-880.1,533.5z"/>
		<path d="M-880,544.1c-1.2,0-2,1-2,2.2v36.9c0,1.2,0.8,2.2,2,2.2s2-1,2-2.2v-36.9C-878,545.1-878.8,544.1-880,544.1z"/>
		<path d="M-857,544.4v-45.5c0-1.2-0.8-2.2-2-2.2s-2,1-2,2.2v45.5c-3,0.9-5.4,3.8-5.4,7.1c0,4.1,3.3,7.5,7.4,7.5s7.3-3.3,7.3-7.5
			C-851.6,548.2-854,545.3-857,544.4z M-859,554.6c-1.7,0-3.1-1.4-3.1-3.1s1.4-3.1,3.1-3.1s3.1,1.4,3.1,3.1S-857.3,554.6-859,554.6z
			"/>
		<path d="M-859,565.1c-1.2,0-2,1-2,2.2v15.8c0,1.2,0.8,2.2,2,2.2s2-1,2-2.2v-15.8C-857,566.1-857.8,565.1-859,565.1z"/>
		<path d="M-836,507.5v-8.6c0-1.2-0.8-2.2-2-2.2s-2,1-2,2.2v8.7c-3,0.9-5.3,3.8-5.3,7.1c0,4.1,3.3,7.5,7.4,7.5
			c4.1,0,7.3-3.3,7.3-7.5C-830.6,511.3-833,508.5-836,507.5z M-837.9,517.7c-1.7,0-3.1-1.4-3.1-3.1c0-1.7,1.4-3.1,3.1-3.1
			c1.7,0,3.1,1.4,3.1,3.1C-834.9,516.4-836.2,517.7-837.9,517.7z"/>
		<path d="M-838,528.3c-1.2,0-2,1-2,2.2v52.7c0,1.2,0.8,2.2,2,2.2s2-1,2-2.2v-52.7C-836,529.3-836.8,528.3-838,528.3z"/>
	</g>
</g>
<g class="st0">
	<g class="st1">
		<path d="M-824,516.7c0.1,0,0.1-0.2,0.2-0.2c0.1,0,0.2-0.1,0.2-0.1c0.1,0,0.2-0.1,0.2-0.1c0.1,0,0.1-0.1,0.2-0.1
			c0.2-0.2,0.5-0.4,0.6-0.6c0-0.1,0.1-0.1,0.1-0.2c0-0.1,0.1-0.1,0.1-0.2c0-0.1,0-0.2,0.1-0.2c0-0.1,0.1-0.1,0.1-0.2
			c0-0.1,0.1-0.3,0.1-0.4l0,0l0,0c0-0.1-0.1-0.3-0.1-0.4s-0.1-0.1-0.1-0.2c0-0.1-0.1-0.2-0.1-0.2c0-0.1-0.1-0.1-0.1-0.2
			c0-0.1-0.1-0.1-0.1-0.2c-0.1-0.1-0.2-0.2-0.3-0.3l-18-18c-0.1-0.1-0.2-0.2-0.3-0.3c0,0-0.1-0.1-0.2-0.1s-0.2-0.1-0.2-0.1
			c-0.1,0-0.1,0-0.2-0.1c-0.1,0-0.1,0-0.2-0.1c-0.1,0-0.3,0-0.4,0h-41.3c-5-0.2-9.3,3.8-9.3,8.7v76.7c0,4.9,4.3,9.4,9.3,9.4h52.7
			c4.9,0,9.1-4.5,9.1-9.4V530c0-1.2-1.3-2.3-2.5-2.3c-1.2,0-2.5,1-2.5,2.3v49.6c0,2.4-1.7,4.4-4.1,4.4h-52.7c-2.4,0-4.3-2-4.3-4.4
			v-76.7c0-2.4,1.8-3.9,4.3-3.9h38.7v8.6c0,4.9,4.3,9.4,9.3,9.4h11.3C-824.3,517-824.1,516.7-824,516.7z M-840,507.6v-5.9l10.1,10.3
			h-5.9C-838.2,512-840,510-840,507.6z"/>
		<path d="M-878.4,517h24c1.2,0,2.3-1.3,2.3-2.5s-1-2.5-2.3-2.5h-24c-1.2,0-2.3,1.3-2.3,2.5S-879.7,517-878.4,517z"/>
		<path d="M-834.2,526.5c0-1.2-1-2.5-2.3-2.5h-42c-1.2,0-2.3,1.3-2.3,2.5s1,2.5,2.3,2.5h42C-835.2,529-834.2,527.7-834.2,526.5z"/>
		<path d="M-878.4,541h30c1.2,0,2.3-1.3,2.3-2.5s-1-2.5-2.3-2.5h-30c-1.2,0-2.3,1.3-2.3,2.5S-879.7,541-878.4,541z"/>
		<path d="M-840.2,550.5c0-1.2-1-2.5-2.3-2.5h-36c-1.2,0-2.3,1.3-2.3,2.5s1,2.5,2.3,2.5h36C-841.2,553-840.2,551.7-840.2,550.5z"/>
		<path d="M-846.2,562.5c0-1.2-1-2.5-2.3-2.5h-30c-1.2,0-2.3,1.3-2.3,2.5s1,2.5,2.3,2.5h30C-847.2,565-846.2,563.7-846.2,562.5z"/>
		<path d="M-878.4,572c-1.2,0-2.3,1.3-2.3,2.5s1,2.5,2.3,2.5h12c1.2,0,2.3-1.3,2.3-2.5s-1-2.5-2.3-2.5H-878.4z"/>
	</g>
</g>
<g class="st0">
	<g class="st1">
		<path d="M-824.9,516.2c0.1,0,0.1,0.1,0.2,0.1c0.1,0,0.2,0,0.2,0c0.1,0,0.1,0,0.2-0.1c0.1,0,0.1,0,0.2-0.1c0.2-0.2,0.5-0.4,0.6-0.6
			c0-0.1,0.1-0.1,0.1-0.2c0-0.1,0.1-0.1,0.1-0.2c0-0.1,0-0.2,0.1-0.2c0-0.1,0-0.2,0.1-0.3c0-0.1,0.1-0.5,0.1-0.5l0,0v0.2
			c0-0.1,0-0.3-0.1-0.4c0-0.1-0.1-0.1-0.1-0.2c0-0.1,0-0.1-0.1-0.2c0-0.1-0.1-0.1-0.1-0.2c0-0.1-0.1-0.1-0.1-0.2
			c-0.1-0.1-0.2-0.2-0.3-0.3l-17.8-18.1c-0.1-0.1-0.2-0.2-0.3-0.3c-0.1,0-0.1-0.1-0.2-0.1c-0.1,0-0.1-0.1-0.2-0.1
			c-0.1,0-0.2,0-0.2-0.1c-0.1,0-0.1-0.1-0.2-0.1c-0.2,0.1-0.3,0-0.5,0l0,0h-41c-4.9,0-8.8,4.1-8.8,8.9V579c0,4.9,3.9,8.9,8.8,8.9
			h52.3c4.9,0,8.9-4.1,8.9-8.9v-49.2c0-1.2-1.3-2.2-2.5-2.2s-2.5,1-2.5,2.2V579c0,2.4-1.5,3.9-3.9,3.9h-52.3c-2.4,0-4.8-1.5-4.8-3.9
			v-76.1c0-2.4,2.4-3.9,4.8-3.9h39.2v8.6c0,4.9,3.6,8.4,8.4,8.4h11.2C-825.2,516-825,516.2-824.9,516.2z M-841,507.6v-5.8l10.3,10.2
			h-5.8C-839,512-841,510-841,507.6z"/>
		<path d="M-878.9,516h23.8c1.2,0,2.2-0.8,2.2-2s-1-2-2.2-2h-23.8c-1.2,0-2.2,0.8-2.2,2S-880.1,516-878.9,516z"/>
		<path d="M-837.2,524h-41.7c-1.2,0-2.2,0.8-2.2,2s1,2,2.2,2h41.7c1.2,0,2.2-0.8,2.2-2S-836,524-837.2,524z"/>
		<path d="M-837.2,536h-41.7c-1.2,0-2.1,0.8-2.1,2v35.7c0,0.1-0.1,0.3,0,0.4c0,0.1,0,0.1,0,0.2c0,0.1,0,0.2,0.1,0.2
			c0,0.1,0.1,0.1,0.1,0.2c0,0.1,0,0.1,0.1,0.2c0.2,0.2,0.4,0.5,0.6,0.6c0.1,0,0.1,0.1,0.2,0.1c0.1,0,0.1,0.1,0.2,0.1
			c0.1,0,0.1,0,0.2,0.1c0.1,0,0.1,0,0.2,0.1c0.1,0,0.3,0,0.4,0h41.7c1.2,0,2.2-1,2.2-2.2V538C-835,536.8-836,536-837.2,536z
			 M-842.2,572l-13.5-13.7c0.2,0.1,0.4,0,0.6,0c0.6,0,1.1-0.3,1.6-0.7l4.6-4.4l9.9,9.6v9.2H-842.2z M-861,559.5l12.4,12.5h-24.9
			L-861,559.5z M-847.3,548.3c-0.4-0.4-1.1-0.7-1.7-0.7s-1.2,0.2-1.6,0.7l-6,6c-0.6,0.6-0.8,1.5-0.6,2.2l-2.2-2.2
			c-0.9-0.9-2.5-0.9-3.3,0l-14.3,14V540h38v16.4L-847.3,548.3z"/>
	</g>
</g>
<g class="st0">
	<g class="st1">
		<path d="M-859,522.4c7.6,0,14.5,4.7,17.3,11.8c0.5,1.2,1.8,1.8,3,1.3s1.8-1.8,1.3-3c-3.4-8.9-12.1-14.8-21.6-14.8
			c-12.8,0-23.3,10.5-23.3,23.3s10.5,23.3,23.3,23.3c9.6,0,18.1-5.7,21.6-14.6c0.5-1.2-0.1-2.5-1.3-3s-2.5,0.1-3,1.3
			c-2.8,7-9.8,11.7-17.3,11.7c-10.3,0-18.6-8.4-18.6-18.6C-877.6,530.7-869.3,522.4-859,522.4z"/>
		<path d="M-892.3,504.4c-0.9-0.9-2.4-0.9-3.3,0c-0.9,0.9-0.9,2.4,0,3.3l7,7c0.5,0.5,1.1,0.7,1.6,0.7c0.6,0,1.2-0.2,1.6-0.7
			c0.9-0.9,0.9-2.4,0-3.3L-892.3,504.4z"/>
		<path d="M-831,515.4c0.6,0,1.2-0.2,1.6-0.7l7-7c0.9-0.9,0.9-2.4,0-3.3c-0.9-0.9-2.4-0.9-3.3,0l-7,7c-0.9,0.9-0.9,2.4,0,3.3
			C-832.2,515.1-831.6,515.4-831,515.4z"/>
		<path d="M-888.6,567.3l-7,7c-0.9,0.9-0.9,2.4,0,3.3c0.5,0.5,1.1,0.7,1.6,0.7s1.2-0.2,1.6-0.7l7-7c0.9-0.9,0.9-2.4,0-3.3
			C-886.2,566.4-887.7,566.4-888.6,567.3z"/>
		<path d="M-829.4,567.3c-0.9-0.9-2.4-0.9-3.3,0c-0.9,0.9-0.9,2.4,0,3.3l7,7c0.5,0.5,1.1,0.7,1.6,0.7c0.6,0,1.2-0.2,1.6-0.7
			c0.9-0.9,0.9-2.4,0-3.3L-829.4,567.3z"/>
		<path d="M-891.6,541c0-1.3-1-2-2.3-2h-9.9c-1.3,0-2.3,0.7-2.3,2s1,2,2.3,2h9.8C-892.7,543-891.6,542.3-891.6,541z"/>
		<path d="M-859,573.6c-1.3,0-2,1-2,2.3v9.9c0,1.3,0.7,2.3,2,2.3s2-1,2-2.3V576C-857,574.7-857.7,573.6-859,573.6z"/>
		<path d="M-859,508.4c1.3,0,2-1,2-2.3v-9.9c0-1.3-0.7-2.3-2-2.3s-2,1-2,2.3v9.8C-861,507.3-860.3,508.4-859,508.4z"/>
		<path d="M-814.2,539h-9.8c-1.3,0-2.3,0.7-2.3,2s1,2,2.3,2h9.9c1.3,0,2.3-0.7,2.3-2S-812.9,539-814.2,539z"/>
	</g>
</g>
<g class="st0">
	<g class="st1">
		<path d="M-840.4,539h-10c-1.3,0-2.4,1.2-2.4,2.5s1.1,2.5,2.4,2.5h10c1.3,0,2.4-1.2,2.4-2.5S-839.1,539-840.4,539z"/>
		<path d="M-842.1,550.3c-1.1-0.7-2.6-0.3-3.2,0.8c-3.4,5.8-9.6,9.3-16.3,9.3c-10.4,0-18.9-8.5-18.9-18.9s8.5-18.9,18.9-18.9
			c6.5,0,12.6,3.4,16,8.9c0.7,1.1,2.2,1.4,3.3,0.7c1.1-0.7,1.4-2.2,0.8-3.3c-4.5-6.9-12-11.1-20.2-11.1c-13,0-23.7,10.6-23.7,23.7
			s10.6,23.7,23.7,23.7c8.3,0,16.2-4.5,20.4-11.7C-840.6,552.4-841,550.9-842.1,550.3z"/>
	</g>
</g>
<g class="st0">
	<g class="st1">
		<path d="M-818.6,519.9l-16.5-16.5c-2.7-2.7-7-2.7-9.7,0l-52.7,52.7c-2.7,2.7-2.7,7,0,9.7l16.5,16.5c0.3,0.3,0.7,0.4,1.1,0.4
			c0.4,0,0.8-0.1,1.1-0.4c0.6-0.6,0.6-1.5,0-2.1l-16.6-16.5c-1.5-1.5-1.5-4,0-5.5l1.2-1.2l11,11c0.6,0.6,1.5,0.6,2.1,0
			c0.6-0.6,0.6-1.5,0-2.1l-11-11l3.9-3.9l5,5c0.6,0.6,1.5,0.6,2.1,0c0.6-0.6,0.6-1.5,0-2.1l-5-5l3.9-3.9l11,11
			c0.6,0.6,1.5,0.6,2.1,0c0.6-0.6,0.6-1.5,0-2.1l-11-11l3.9-3.9l5,5c0.6,0.6,1.5,0.6,2.1,0c0.6-0.6,0.6-1.5,0-2.1l-5-5l3.9-3.9
			l11,11c0.6,0.6,1.5,0.6,2.1,0c0.6-0.6,0.6-1.5,0-2.1l-11-11l3.9-3.9l5,5c0.6,0.6,1.5,0.6,2.1,0c0.6-0.6,0.6-1.5,0-2.1l-5-5
			l3.9-3.9l11,11c0.6,0.6,1.5,0.6,2.1,0c0.6-0.6,0.6-1.5,0-2.1l-11-11l3.9-3.9l5,5c0.3,0.3,0.7,0.4,1.1,0.4c0.4,0,0.8-0.1,1.1-0.4
			c0.6-0.6,0.6-1.5,0-2.1l-5-5l3.9-3.9l11,11c0.3,0.3,0.7,0.4,1.1,0.4s0.8-0.1,1.1-0.4c0.6-0.6,0.6-1.5,0-2.1l-11-11l1.2-1.2
			c1.5-1.5,4-1.5,5.5,0l16.5,16.3c0.7,0.7,1.1,1.7,1.1,2.7s-0.4,2-1.1,2.7l-48.3,48.3c-0.6,0.6-0.6,1.5,0,2.1
			c0.3,0.3,0.7,0.4,1.1,0.4c0.4,0,0.8-0.1,1.1-0.4l48.2-48.2C-815.9,526.9-815.9,522.6-818.6,519.9z"/>
	</g>
</g>
<g class="st0">
	<g class="st1">
		<path d="M-823.5,515.1c-0.6-0.6-1.5-0.6-2.1,0c-0.6,0.6-0.6,1.5,0,2.1c0.7,0.7,1,1.6,1,2.5c0,0.9-0.4,1.8-1,2.4c0,0,0-0.1-0.1-0.1
			l-5.7-5.7c-0.6-0.6-1.5-0.6-2.1,0c-0.6,0.6-0.6,1.5,0,2.1l5.7,5.7c0,0,0.1,0,0.1,0.1l-41.1,41.3l-11.6-11.6l43.2-43.2
			c0.6-0.6,0.6-1.5,0-2.1c-0.6-0.6-1.5-0.6-2.1,0l-44.3,44.2l0,0c-0.1,0.1-0.2,0.3-0.3,0.4c0,0,0,0,0,0.1c0,0,0,0,0,0.1l-6.8,20.5
			l0,0c0,0.1,0,0.1,0,0.2v0.1v0.1v0.1v0.1c0,0.1,0,0.1,0,0.2l0,0l0,0c0,0.1,0.1,0.3,0.2,0.4l0,0c0.1,0.1,0.2,0.2,0.3,0.3
			c0,0,0,0,0.1,0.1c0.1,0.1,0.2,0.1,0.4,0.2l0,0c0.1,0,0.3,0.1,0.5,0.1s0.3,0,0.5-0.1l0,0l20.3-6.7c0,0,0,0,0.1,0c0,0,0,0,0.1,0
			c0.2-0.1,0.3-0.2,0.4-0.3l0,0l44.3-44.3c1.2-1.2,1.9-2.9,1.9-4.6C-821.6,518-822.2,516.3-823.5,515.1z M-887,572.1l5.1-15.4
			l10.2,10.2L-887,572.1z"/>
		<path d="M-839.1,522.1l-17.1,17.1c-0.6,0.6-0.6,1.5,0,2.1c0.3,0.3,0.7,0.4,1.1,0.4c0.4,0,0.8-0.1,1.1-0.4l17-17.1
			c0.6-0.6,0.6-1.5,0-2.1C-837.6,521.5-838.5,521.5-839.1,522.1z"/>
		<path d="M-861.9,544.9l-5.7,5.7c-0.6,0.6-0.6,1.5,0,2.1c0.3,0.3,0.7,0.4,1.1,0.4s0.8-0.1,1.1-0.4l5.7-5.7c0.6-0.6,0.6-1.5,0-2.1
			C-860.3,544.3-861.3,544.3-861.9,544.9z"/>
	</g>
</g>
<g class="st0">
	<g class="st1">
		<path d="M-816.7,539.2c-0.7-1-16.3-24.7-43.3-24.7s-42.6,23.7-43.3,24.7l-0.5,0.8l0.5,0.8c0.7,1,16.3,24.7,43.3,24.7
			s42.6-23.7,43.3-24.7l0.5-0.8L-816.7,539.2z M-860,562.5c-22.6,0-37.2-18.4-40.2-22.5c3-4.1,17.5-22.5,40.2-22.5
			c22.6,0,37.2,18.4,40.2,22.5C-822.8,544.1-837.3,562.5-860,562.5z"/>
		<path d="M-848.1,537.9c-0.8,0-1.5,0.8-1.4,1.6c0,0.2,0,0.4,0,0.5c0,5.8-4.7,10.5-10.5,10.5s-10.5-4.7-10.5-10.5
			s4.7-10.5,10.5-10.5c1.9,0,3.8,0.5,5.5,1.6c0.7,0.4,1.6,0.2,2.1-0.5c0.5-0.7,0.2-1.6-0.5-2.1c-2.1-1.3-4.6-2-7.1-2
			c-7.4,0-13.5,6.1-13.5,13.5s6.1,13.5,13.5,13.5s13.5-6.1,13.5-13.5c0-0.2,0-0.5,0-0.7C-846.6,538.5-847.3,537.9-848.1,537.9z"/>
	</g>
</g>
<g class="st0">
	<g class="st1">
		<path d="M-824.9,575.2l-24.6-24.6c-0.8-0.8-2.1-0.8-2.9,0c-0.8,0.8-0.8,2.1,0,2.9l24.7,24.7c0.4,0.4,0.9,0.6,1.5,0.6
			c0.5,0,1.1-0.2,1.5-0.6C-824,577.3-824,576-824.9,575.2z"/>
		<path d="M-869.5,510.9c12.5,0,22.6,10.1,22.6,22.6c0,3.2-0.6,6.2-1.9,9.1c-0.5,1,0,2.3,1.1,2.7c1,0.5,2.3,0,2.7-1.1
			c1.5-3.4,2.3-7,2.3-10.8c0-14.7-12-26.7-26.7-26.7c-14.7,0-26.7,12-26.7,26.7c0,14.7,12,26.7,26.7,26.7c3.7,0,7.3-0.8,10.8-2.3
			c1-0.5,1.5-1.7,1.1-2.7c-0.5-1-1.7-1.5-2.7-1.1c-2.9,1.3-5.9,1.9-9.1,1.9c-12.7,0.2-22.8-9.9-22.8-22.4S-882,510.9-869.5,510.9z"
			/>
	</g>
</g>
<g class="st0">
	<g class="st1">
		<path d="M-860,503.4c-17.2,0-31.2,14-31.2,31.2c0,16.8,28.4,43.9,29.6,45l1.7,1.6l1.7-1.6c1.2-1.1,29.6-28.2,29.6-45
			C-828.8,517.4-842.8,503.4-860,503.4z M-860,574.5c-8.7-8.5-26.4-28.4-26.4-39.9c0-14.6,11.8-26.4,26.4-26.4s26.4,11.9,26.4,26.4
			C-833.6,546-851.3,566-860,574.5z"/>
		<path d="M-845.9,530.8c-1.3,0.1-2.3,1.3-2.1,2.6c0,0.4,0.1,0.8,0.1,1.2c0,6.6-5.4,12-12,12c-6.6,0-12-5.4-12-12
			c0-6.6,5.4-12,12-12c2.5,0,4.8,0.7,6.8,2.1c1.1,0.8,2.6,0.5,3.3-0.6c0.8-1.1,0.5-2.6-0.6-3.3c-2.8-2-6.1-3-9.6-3
			c-9.3,0-16.8,7.5-16.8,16.8c0,9.3,7.5,16.8,16.8,16.8s16.8-7.5,16.8-16.8c0-0.6,0-1.1-0.1-1.7
			C-843.4,531.6-844.6,530.6-845.9,530.8z"/>
	</g>
</g>
<g class="st0">
	<g class="st1">
		<path d="M-856.4,558.6l-14.8,14.8c-4.5,4.5-11.9,4.5-16.5,0c-4.5-4.5-4.5-11.9,0-16.5l14.8-14.8c0.9-0.9,0.9-2.4,0-3.3
			c-0.9-0.9-2.4-0.9-3.3,0l-14.8,14.9c-6.4,6.4-6.4,16.7,0,23c3.2,3.2,7.3,4.8,11.5,4.8s8.3-1.6,11.5-4.8l14.8-14.8
			c0.9-0.9,0.9-2.4,0-3.3C-854.1,557.7-855.5,557.7-856.4,558.6z"/>
		<path d="M-823.5,509.3c-6.4-6.4-16.7-6.4-23,0l-14.9,14.8c-0.9,0.9-0.9,2.4,0,3.3c0.9,0.9,2.4,0.9,3.3,0l14.8-14.8
			c4.5-4.5,11.9-4.5,16.5,0c4.5,4.5,4.5,11.9,0,16.5l-14.8,14.7c-0.9,0.9-0.9,2.4,0,3.3c0.5,0.5,1.1,0.7,1.6,0.7s1.2-0.2,1.6-0.7
			l14.8-14.8C-817.2,526-817.2,515.6-823.5,509.3z"/>
		<path d="M-876.2,561.9c0.5,0.5,1.1,0.7,1.6,0.7c0.6,0,1.2-0.2,1.6-0.7l34.6-34.6c0.9-0.9,0.9-2.4,0-3.3c-0.9-0.9-2.4-0.9-3.3,0
			l-34.5,34.6C-877.1,559.5-877.1,561-876.2,561.9z"/>
	</g>
</g>
<g class="st0">
	<g class="st1">
		<path d="M-857,555.4c6.8,0,12.4-5.6,12.4-12.4s-5.6-12.4-12.4-12.4c-1.1,0-2,0.9-2,2c0,1.1,0.9,2,2,2c4.6,0,8.4,3.8,8.4,8.4
			s-3.8,8.4-8.4,8.4s-8.4-3.8-8.4-8.4c0-2.2,0.9-4.3,2.4-5.9c0.8-0.8,0.8-2,0-2.8s-2-0.8-2.8,0c-2.3,2.3-3.5,5.4-3.5,8.7
			C-869.4,549.8-863.8,555.4-857,555.4z"/>
		<path d="M-815.4,541h-8.5c-0.5-8-3.5-14.6-8.3-20l5.2-5.2c0.8-0.8,0.8-2,0-2.8s-2-0.8-2.8,0l-5.2,5.2c-5.4-4.8-12-7.9-20-8.3v-8.5
			c0-1.1-0.9-2-2-2s-2,0.9-2,2v23.8c0,1.1,0.9,2,2,2s2-0.9,2-2v-11.4c7,0.4,12.5,3.1,17.2,7.2l-5,5c-0.8,0.8-0.8,2,0,2.8
			c0.4,0.4,0.9,0.6,1.4,0.6s1-0.2,1.4-0.6l5-5c4.1,4.7,6.7,10.2,7.2,17.2h-11.4c-1.1,0-2,0.9-2,2s0.9,2,2,2h11.3
			c-0.4,7-3.1,12.5-7.2,17.2l-5-5c-0.8-0.8-2-0.8-2.8,0c-0.8,0.8-0.8,2,0,2.8l5,5c-4.6,4.1-10.1,6.7-17.1,7.2v-11.4c0-1.1-0.9-2-2-2
			s-2,0.9-2,2v11.3c-7-0.4-12.5-3.1-17.2-7.2l5-5c0.8-0.8,0.8-2,0-2.8c-0.8-0.8-2-0.8-2.8,0l-5,5c-4.1-4.6-6.7-10.1-7.2-17.1h11.3
			c1.1,0,2-0.9,2-2s-0.9-2-2-2h-11.3c0.4-6,2.9-12.4,7.1-17.2l5,5c0.4,0.4,0.9,0.6,1.4,0.6s1-0.2,1.4-0.6c0.8-0.8,0.8-2,0-2.8
			l-13-13c-0.8-0.8-2-0.8-2.8,0c-0.8,0.8-0.8,2,0,2.8l5.2,5.2c-5,5.6-7.9,13-8.3,20h-8.5c-1.1,0-2,0.9-2,2s0.9,2,2,2h8.5
			c0.5,8,3.5,14.6,8.3,20l-5.1,5.2c-0.8,0.8-0.8,2,0,2.8c0.4,0.4,0.9,0.6,1.4,0.6s1-0.2,1.4-0.6l5.2-5.2c5.4,4.8,12,7.9,20,8.3v8.5
			c0,1.1,0.9,2,2,2s2-0.9,2-2v-8.5c8-0.5,14.6-3.5,20-8.3l5.2,5.2c0.4,0.4,0.9,0.6,1.4,0.6s1-0.2,1.4-0.6c0.8-0.8,0.8-2,0-2.8
			l-5.2-5.2c4.8-5.4,7.9-12,8.3-20h8.5c1.1,0,2-0.9,2-2S-814.3,541-815.4,541z"/>
	</g>
</g>
<g class="st0">
	<g class="st1">
		<path d="M-819,538c-1.2,0-2,0.9-2,2.1v19.6c0,1.9-1.9,3.3-3.8,3.3h-64.4c-1.9,0-3.8-1.4-3.8-3.3v-19.6c0-1.2-0.8-2.1-2-2.1
			s-2,0.9-2,2.1v19.6c0,4.2,3.6,7.3,7.8,7.3h64.3c4.2,0,7.8-3.1,7.8-7.3v-19.6C-817,538.9-817.8,538-819,538z"/>
		<path d="M-857,554.8c1.2,0,2-0.9,2-2.1v-26.4l9.1,9c0.4,0.4,1,0.6,1.5,0.6s1.1-0.2,1.5-0.6c0.8-0.8,0.8-2.1,0-3l-12.6-12.6
			c-0.1-0.1-0.2-0.2-0.3-0.3c0,0-0.1-0.1-0.2-0.1s-0.1-0.1-0.2-0.1c-0.1,0-0.1,0-0.2-0.1c-0.1,0-0.1,0-0.2-0.1
			c-0.3-0.1-0.6-0.1-0.8,0c-0.1,0-0.1,0-0.2,0.1c-0.1,0-0.1,0-0.2,0.1c-0.1,0-0.1,0.1-0.2,0.1s-0.1,0.1-0.2,0.1
			c-0.2,0.2-0.4,0.4-0.6,0.6c0,0.1-0.1,0.1-0.1,0.2c0,0.1-0.1,0.1-0.1,0.2c0,0.1,0,0.1-0.1,0.2c0,0.1,0,0.1-0.1,0.2
			c0,0.1,0,0.3,0,0.4l0,0v31.5C-859,553.8-858.2,554.8-857,554.8z"/>
		<path d="M-869.6,535.9c0.5,0,1.1-0.2,1.5-0.6l6.3-6.3c0.8-0.8,0.8-2.1,0-3c-0.8-0.8-2.1-0.8-3,0l-6.3,6.3c-0.8,0.8-0.8,2.1,0,3
			C-870.7,535.7-870.1,535.9-869.6,535.9z"/>
	</g>
</g>
<g class="st0">
	<g class="st1">
		<path d="M-819,538c-1.2,0-2,0.9-2,2.1v19.6c0,1.9-1.8,3.3-3.8,3.3h-64.4c-1.9,0-3.8-1.4-3.8-3.3v-19.6c0-1.2-0.8-2.1-2-2.1
			s-2,0.9-2,2.1v19.6c0,4.2,3.5,7.3,7.8,7.3h64.4c4.2,0,7.8-3,7.8-7.3v-19.6C-817,538.9-817.8,538-819,538z"/>
		<path d="M-864.8,547.9c0.4,0.4,0.9,0.6,1.5,0.6c0.6,0,1.1-0.2,1.5-0.6c0.8-0.8,0.8-2.2,0-3l-6.3-6.3c-0.8-0.8-2.2-0.8-3,0
			c-0.8,0.8-0.8,2.2,0,3L-864.8,547.9z"/>
		<path d="M-859.1,553.1c0,0.1,0,0.1,0.1,0.2c0,0.1,0,0.1,0.1,0.2c0,0.1,0.1,0.1,0.1,0.2c0,0.1,0.1,0.1,0.1,0.2
			c0.2,0.2,0.4,0.4,0.6,0.6c0.1,0,0.1,0.1,0.2,0.1c0.1,0,0.1,0.1,0.2,0.1c0.1,0,0.1,0,0.2,0.1c0.1,0,0.1,0,0.2,0.1
			c0.1,0,0.3,0,0.4,0c0.1,0,0.3,0,0.4,0s0.1,0,0.2-0.1c0.1,0,0.1,0,0.2-0.1c0.1,0,0.1-0.1,0.2-0.1c0.1,0,0.1-0.1,0.2-0.1
			c0.1-0.1,0.2-0.2,0.3-0.3l12.6-12.6c0.8-0.8,0.8-2.2,0-3c-0.8-0.8-2.2-0.8-3,0l-9.1,9v-26.4c0-1.2-0.8-2.1-2-2.1
			c-1.2,0-2,0.9-2,2.1v31.5l0,0C-859,552.9-859.1,553-859.1,553.1z"/>
	</g>
</g>
<g class="st0">
	<g class="st1">
		<path d="M-823.1,524H-841c-1.7,0-3-0.9-3-2.6V513h-19.2c-3.7,0-6.8,3.4-6.8,7.2v1.2c0,1.7-1.3,2.6-3,2.6h-17.9c-1,0-1.9,1-1.9,2
			s0.8,2,1.9,2h17.9c3.7,0,7-2.9,7-6.6v-1.2c0-1.7,1.1-3.2,2.8-3.2h15.2v4.4c0,3.7,3.3,6.6,7,6.6h17.9c1.7,0,3.1,1.6,3.1,3.3v34.6
			c0,1.7-1.4,3.2-3.1,3.2h-67.8c-1.7,0-3.1-1.4-3.1-3.1c0-0.1,0-0.2,0-0.3c0-0.1,0-0.2,0-0.3v-28c0-1-1-1.9-2-1.9s-2,0.8-2,1.9v27.8
			c0,0.1,0.1,0.2,0.2,0.3c0,0.1,0,0.4,0,0.5c0,3.7,3.1,7,6.9,7h67.9c3.7,0,7.1-3.4,7.1-7.2v-34.5C-816,527.5-819.3,524-823.1,524z"
			/>
		<path d="M-866.2,542.1c-0.9-0.4-2-0.1-2.5,0.9c-0.8,1.7-1.3,3.7-1.3,5.6c0,7.1,5.8,13,13,13c7.1,0,13-5.8,13-13
			c0-7.1-5.8-13-13-13c-2.2,0-4.3,0.5-6.2,1.6c-0.9,0.5-1.2,1.6-0.7,2.5c0.5,0.9,1.6,1.2,2.5,0.7c1.4-0.7,2.9-1.1,4.4-1.1
			c5.1,0,9.3,4.2,9.3,9.3c0,5.1-4.2,9.3-9.3,9.3s-9.3-4.2-9.3-9.3c0-1.4,0.3-2.8,0.9-4C-864.9,543.6-865.3,542.5-866.2,542.1z"/>
		<path d="M-840.3,539h11.1c1,0,1.9-0.5,1.9-1.5s-0.9-1.5-1.9-1.5h-11.1c-1,0-1.9,0.5-1.9,1.5S-841.4,539-840.3,539z"/>
		<path d="M-840.3,550h11.1c1,0,1.9-0.5,1.9-1.5s-0.9-1.5-1.9-1.5h-11.1c-1,0-1.9,0.5-1.9,1.5S-841.4,550-840.3,550z"/>
		<path d="M-840.3,562h5.6c1,0,1.9-1,1.9-2s-0.8-2-1.9-2h-5.6c-1,0-1.9,1-1.9,2S-841.4,562-840.3,562z"/>
	</g>
</g>
<g class="st0">
	<g class="st1">
		<path d="M-815.7,574.2l-5.2-47c-0.4-4-3.8-7.2-7.9-7.2h-6.7c-2.8-11-10.9-19.4-20.5-19.4s-17.7,8.4-20.5,19.4h-6.7
			c-1.2,0-2.2,1.3-2.2,2.5s1,2.5,2.2,2.5h5.9c-0.2,1-0.3,2.7-0.3,4.2c0,1.2,1,2.1,2.2,2.1c1.2,0,2.2-0.9,2.2-2.1
			c0-1.5,0.1-3.2,0.3-4.2h33.9c0.2,1,0.3,2.7,0.3,4.2c0,1.2,1,2.1,2.2,2.1s2.2-0.9,2.2-2.1c0-1.5-0.1-3.2-0.3-4.2h5.9
			c1.8,0,3.4,1.2,3.6,3.1l5.1,46.7c0.1,1-0.2,2.1-0.9,2.9c-0.7,0.8-1.6,1.3-2.7,1.3h-64.8c-1,0-2-0.6-2.7-1.4
			c-0.7-0.8-1-1.8-0.9-2.7l5.8-32.5c0.2-1.2-0.6-2.3-1.7-2.5c-1.2-0.2-2.3,0.6-2.5,1.7l-5.8,32.6c-0.2,2.2,0.5,4.5,2,6.1
			c1.5,1.7,3.6,2.6,5.9,2.6h64.8c2.2,0,4.4-1,5.9-2.6C-816.2,578.7-815.5,576.4-815.7,574.2z M-872.1,520c2.5-8,8.8-15.1,16.1-15.1
			s13.6,7.1,16.1,15.1H-872.1z"/>
	</g>
</g>
<g class="st0">
	<g class="st1">
		<path d="M-822.4,509.4l-18.4-4.6c-1.2-0.3-2.4-0.1-3.4,0.5c-1-0.6-2.2-0.8-3.4-0.5l-18.5,4.6c-0.7,0.2-1.3,0.5-1.8,1
			c-0.5-0.4-1.1-0.8-1.8-1l-18.5-4.6c-1.4-0.3-2.8,0-4,0.8c-1.1,0.9-1.8,2.2-1.8,3.6c0,1.1,0.9,2,2,2s2-0.9,2-2
			c0-0.3,0.2-0.4,0.3-0.5c0.1-0.1,0.3-0.2,0.6-0.1l18.7,4.6c0.3,0.1,0.7,0.3,0.7,0.6v43.3c-6-0.8-8.1-5.6-8.1-15.7c0-1.1-1-2-2.1-2
			c-1.1,0-1.8,0.9-1.8,2c0,5.1,0,18.4,12,19.7v12.6c0,0.3-0.3,0.4-0.4,0.5c-0.1,0.1-0.4,0.2-0.7,0.1l-18.4-4.6
			c-0.3-0.1-0.5-0.3-0.5-0.6v-45.4c0-1.1-0.9-2-2-2c-1.1,0-2,0.9-2,2v45.5c0,2.1,1.4,4,3.4,4.5l18.4,4.6c0.4,0.1,0.7,0.1,1.1,0.1
			c1,0,2-0.3,2.8-1l0.1-0.1l0.1,0.1c0.8,0.6,1.8,1,2.8,1c0.4,0,0.8,0,1.1-0.1l18.5-4.6c0.4-0.1,0.8-0.3,1.2-0.5
			c0.4,0.2,0.8,0.4,1.2,0.5l18.5,4.6c0.4,0.1,0.8,0.1,1.1,0.1c1,0,2-0.3,2.8-1c1.1-0.9,1.7-2.2,1.7-3.6v-59.9
			C-819,511.7-820.4,509.9-822.4,509.4z M-865.4,513.4l18.6-4.4l0,0c0.1,0-0.1-0.2,0-0.2c0,0.2-0.3,0.2-0.3,0.5V528
			c-6,1.2-11.1,6.9-11.1,13.6c0,7.5-2.9,14-7.9,15.5v-43.2C-866,513.6-865.7,513.5-865.4,513.4z M-864.9,574.4
			c-0.3,0.1-0.6,0-0.7-0.1c-0.1-0.1-0.4-0.3-0.4-0.5v-12.7c7-1.3,11.8-9.4,11.8-19.6c0-4.5,3.2-8.4,7.2-9.5v37.2
			c0,0.2,0.2,0.4,0.3,0.7L-864.9,574.4z M-823,573.8c0,0.3-0.1,0.4-0.2,0.5c-0.1,0.1-0.3,0.2-0.5,0.1l-18.4-4.6
			c0-0.2,0.1-0.4,0.1-0.7V532c4,1,6.3,3.9,7.1,7.5l-1.1-1.1c-0.8-0.8-2-0.8-2.8,0c-0.8,0.8-0.8,2,0,2.8l3.1,3.1l-3.5,2.8
			c-0.8,0.7-1,1.9-0.3,2.8c0.4,0.5,1,0.7,1.5,0.7c0.4,0,0.9-0.1,1.2-0.4l3.8-3.1l3.4,3.4c0.4,0.4,0.9,0.6,1.4,0.6s1-0.2,1.4-0.6
			c0.8-0.8,0.8-2,0-2.8l-3.1-3.1l3.5-2.8c0.8-0.7,1-1.9,0.3-2.8c-0.7-0.8-1.9-1-2.8-0.3l-2,1.6c-0.4-6.2-5.1-11.2-11.1-12.4v-18.7
			c0-0.2,0-0.4,0-0.7c0,0,0,0,0.1,0c0.1,0,0.1,0,0.2,0l18.4,4.6c0.3,0.1,0.4,0.3,0.4,0.6L-823,573.8L-823,573.8z"/>
	</g>
</g>
<g class="st0">
	<g class="st1">
		<path d="M-842.8,527.6c1.2-2.7,2.1-5.5,2.1-8.2c0-10.1-6.7-18.3-15.1-18.3c-8.4,0-15.1,8.2-15.1,18.3c0,3,0.6,5.7,1.5,8.1
			c-8.5,2.2-14.6,10-14.6,18.8v24.4c0,1.2,0.8,2.2,2,2.2s2-1,2-2.2v-24.4c0-7.6,6.1-14.2,13.9-15l3.3-0.3l-1.8-2.9
			c-1.4-2.3-2.1-5.3-2.1-8.6c0-7.7,4.9-14,10.8-14c6,0,10.8,6.3,10.8,14c0,3.5-1.5,6.7-2.7,8.6l-1.8,2.9l3.4,0.3
			c7.6,0.7,13.2,7.2,13.2,15v24.4c0,1.2,0.8,2.2,2,2.2s2-1,2-2.2v-24.4C-829,537.3-834.6,529.8-842.8,527.6z"/>
		<path d="M-870.2,572.7l-6.5,6.5c-0.8,0.8-0.8,2.2,0,3c0.4,0.4,1,0.6,1.5,0.6c0.6,0,1.1-0.2,1.5-0.6l6.5-6.5c0.8-0.8,0.8-2.2,0-3
			S-869.4,571.9-870.2,572.7z"/>
		<path d="M-856,572.1c-1.2,0-2,1-2,2.2v6.5c0,1.2,0.8,2.2,2,2.2s2-1,2-2.2v-6.5C-854,573.1-854.8,572.1-856,572.1z"/>
		<path d="M-841.4,572.7c-0.8-0.8-2.2-0.8-3,0c-0.8,0.8-0.8,2.2,0,3l6.5,6.5c0.4,0.4,1,0.6,1.5,0.6c0.6,0,1.1-0.2,1.5-0.6
			c0.8-0.8,0.8-2.2,0-3L-841.4,572.7z"/>
	</g>
</g>
<g class="st0">
	<g class="st1">
		<path d="M-821.5,543h-48.9c-1-7-7.2-12.5-14.7-12.5c-8.2,0-14.8,6.7-14.8,14.9c0,8.2,6.7,14.9,14.8,14.9c0.9,0,1.9-0.1,2.8-0.2
			c1.1-0.2,1.9-1.3,1.7-2.5c-0.2-1.2-1.3-1.9-2.5-1.7c-0.6,0.1-1.3,0.2-2,0.2c-5.8,0-10.6-4.8-10.6-10.6s4.8-10.6,10.6-10.6
			c5.8,0,10.6,4.8,10.6,10.6c0,2.2-0.7,4.4-2,6.2c-0.7,0.9-0.5,2.3,0.5,3c0.9,0.7,2.3,0.7,3-0.3c1.4-2,2.3-4.4,2.7-6.4h21.3v6
			c0,1.2,0.8,2.1,2,2.1s2-0.9,2-2.1v-6h2v10.2c0,1.2,1.3,2.1,2.5,2.1s2.5-0.9,2.5-2.1V548h2v6c0,1.2,0.8,2.1,2,2.1s2-0.9,2-2.1v-6h2
			v10.2c0,1.2,0.8,2.1,2,2.1s2-0.9,2-2.1V548h4.5c1.2,0,2.1-1.3,2.1-2.5S-820.3,543-821.5,543z"/>
	</g>
</g>
<g class="st0">
	<g class="st1">
		<path d="M-837.2,531.2c-2.3,0-4.5,0.5-6.4,1.4l-21.5-18.6c0.9-1.6,1.4-3.4,1.4-5.4c0-6.1-5-11.1-11.1-11.1c-0.5,0-1,0-1.4,0.1
			c-1.3,0.2-2.2,1.3-2,2.6c0.2,1.3,1.3,2.2,2.6,2c0.3,0,0.6-0.1,0.8-0.1c3.6,0,6.5,2.9,6.5,6.5s-2.9,6.5-6.5,6.5
			c-3.6,0-6.5-2.9-6.5-6.5c0-0.8,0.2-1.7,0.5-2.4c0.5-1.2-0.1-2.5-1.3-3c-1.2-0.5-2.6,0.1-3,1.3c-0.5,1.3-0.8,2.7-0.8,4.2
			c0,6.1,5,11.1,11.1,11.1c2.5,0,4.8-0.8,6.7-2.2l20.5,17.8c-3.1,2.8-5.1,6.9-5.1,11.5c0,2.9,0.8,5.7,2.3,8l-23.6,9.9
			c-1.9-3.3-5.5-5.5-9.6-5.5c-6.1,0-11.2,5-11.2,11.1c0,6.1,5,11.2,11.2,11.2c6.1,0,11.1-5,11.1-11.2c0-0.4,0-0.8-0.1-1.2l25.2-10.6
			c2.7,2.4,6.3,3.8,10.2,3.8c8.6,0,15.6-7,15.6-15.6C-821.7,538.2-828.6,531.2-837.2,531.2z M-883.7,576.9c-3.6,0-6.5-2.9-6.5-6.5
			c0-3.6,2.9-6.5,6.5-6.5c3.6,0,6.5,2.9,6.5,6.5C-877.2,574-880.1,576.9-883.7,576.9z M-837.2,557.7c-6,0-10.9-4.9-10.9-10.9
			s4.9-10.9,10.9-10.9s10.9,4.9,10.9,10.9S-831.2,557.7-837.2,557.7z"/>
	</g>
</g>
<g class="st0">
	<g class="st1">
		<path d="M-829,511.2c-2.3-2.3-5.6-3-8.6-1.8c0,0,0,0-0.1,0l-21.2,7.8c-1.4,0.5-2.1,2.1-1.6,3.4c0.4,1.1,1.4,1.8,2.5,1.8
			c0.3,0,0.6-0.1,0.9-0.2l21.2-7.8l0,0c0,0,0,0,0.1,0c1.5-0.6,2.6,0.3,2.9,0.6c0.3,0.3,1.2,1.4,0.6,2.9l-12.9,31.8l-9.1-7
			c-0.1,0-0.1-0.1-0.2-0.1c-0.1-0.1-0.2-0.1-0.3-0.2c-0.1,0-0.2-0.1-0.3-0.1c-0.1,0-0.1-0.1-0.2-0.1l0,0c-0.1,0-0.2,0-0.3-0.1
			c-0.1,0-0.1,0-0.2,0c-0.1,0-0.2,0-0.3,0c-0.1,0-0.1,0-0.2,0c-0.1,0-0.2,0-0.3,0.1c-0.1,0-0.1,0-0.2,0c-0.1,0-0.2,0.1-0.3,0.1
			c-0.1,0-0.1,0-0.2,0.1c-0.1,0-0.1,0.1-0.2,0.1s-0.1,0.1-0.2,0.2l-0.1,0.1c-0.1,0.1-0.2,0.2-0.2,0.3l0,0c0,0-0.1,0.1-0.1,0.2
			c-0.1,0.1-0.1,0.2-0.2,0.3c0,0.1-0.1,0.2-0.1,0.3c0,0.1-0.1,0.1-0.1,0.2l-4.6,16.1l-3.4,1.4l6.7-23.3c0-0.1,0-0.1,0-0.2
			c0-0.1,0-0.2,0.1-0.3c0-0.1,0-0.2,0-0.3s0-0.2,0-0.3c0-0.1,0-0.2,0-0.3c0-0.1,0-0.2-0.1-0.3c0-0.1-0.1-0.2-0.1-0.2
			c0-0.1-0.1-0.2-0.1-0.2c0-0.1-0.1-0.2-0.2-0.2c0-0.1-0.1-0.1-0.1-0.2l-8.3-10.5c0-0.1,0-0.2-0.1-0.2c-0.4-0.9-1.2-1.5-2.2-1.6
			c-0.8-0.2-1.6,0-2.3,0.5c-0.1,0.1-0.3,0.2-0.4,0.4c-1.4,0.9-2.5,2.2-3.1,3.7l-14.1,34.4c-1.3,3.1-0.6,6.4,1.8,8.8
			c1.6,1.6,3.6,2.4,5.7,2.4c1,0,2.1-0.2,3.1-0.6l34.5-14.2c2-0.8,3.6-2.4,4.4-4.4l14.1-34.5C-825.9,516.9-826.6,513.6-829,511.2z"/>
	</g>
</g>
<g class="st0">
	<g class="st1">
		<path d="M-848.6,503.1c-2.8-1.4-6.1-1-8.5,1l-21.8,17.3c-0.6,0.5-1.5,0.6-2.3,0.6h-11.1c-1.2,0-2.2,1.3-2.2,2.5s1,2.5,2.2,2.5
			h11.1c1.8,0,3.6-0.8,5-1.9l21.8-17.5c1.1-0.9,2.8-1.1,4.1-0.5s2.3,1.8,2.3,3.3v61.2c0,1.4-1,2.7-2.3,3.3c-1.3,0.6-2.9,0.5-4-0.4
			l-21.8-17.6c-1.4-1.1-3.3-1.9-5.1-1.9h-11.1c-2,0-3.7-1.4-3.7-3.4v-16.7c0-1.2-0.8-2.2-2-2.2s-2,1-2,2.2v16.7
			c0,4.4,3.2,8.4,7.7,8.4h11.1c0.8,0,1.6,0.1,2.3,0.6l21.8,17.4c1.5,1.2,3.2,1.7,5,1.7c1.2,0,2.4-0.3,3.5-0.8
			c2.8-1.4,4.6-4.2,4.6-7.3v-61.2C-844,507.3-845.8,504.5-848.6,503.1z"/>
		<path d="M-824.9,543.1l6.3-6.3c0.9-0.9,0.9-2.2,0-3.1c-0.9-0.9-2.2-0.9-3.1,0l-6.3,6.3l-6.3-6.3c-0.9-0.9-2.2-0.9-3.1,0
			c-0.9,0.9-0.9,2.2,0,3.1l6.3,6.3l-6.3,6.3c-0.9,0.9-0.9,2.2,0,3.1c0.4,0.4,1,0.6,1.6,0.6c0.6,0,1.1-0.2,1.6-0.6l6.3-6.3l6.3,6.3
			c0.4,0.4,1,0.6,1.6,0.6s1.1-0.2,1.6-0.6c0.9-0.9,0.9-2.2,0-3.1L-824.9,543.1z"/>
	</g>
</g>
<g class="st0">
	<g class="st1">
		<path d="M-819.3,525c-1.3-1.8-3.3-3-5.5-3h-45.4c-1,0-1.9,1-1.9,2s0.8,2,1.9,2h45.4c1,0,1.9,0.5,2.5,1.3c0.6,0.8,0.7,1.9,0.4,2.8
			l-7.9,23.7c-0.4,1.3-1.6,2.2-2.9,2.2h-34c-1.3,0-2.5-0.9-2.9-2.1l-15.6-41.5l0,0c0-0.1-0.1-0.1-0.1-0.2c0,0,0-0.1-0.1-0.1
			c0-0.1-0.1-0.1-0.1-0.1l-0.1-0.1l-0.1-0.1l-0.1-0.1l-0.1-0.1c-0.1,0-0.1-0.1-0.2-0.1h-0.1c-0.1,0-0.1,0-0.2-0.1h-0.1
			c-0.1,0-0.2-0.1-0.2-0.1v-0.1h-11.5c-1,0-1.9,1-1.9,2s0.8,2,1.9,2h9.9l15.1,40.3c0.5,1.4,1.6,2.6,2.8,3.4
			c-1.1,1.3-1.7,2.9-1.7,4.8c0,4.1,3.3,7.5,7.5,7.5c4.1,0,7.5-3.2,7.5-7.3c0-1.4-0.4-2.6-1-3.6h15.1c-0.6,1-1,2.2-1,3.6
			c0,4.1,3.3,7.4,7.5,7.4s7.5-3.4,7.5-7.5c0-1.5-0.5-3-1.3-4.1c1.9-0.7,3.5-2.2,4.2-4.3l7.9-23.7C-817.6,529.2-818,526.8-819.3,525z
			 M-860.9,563.4c0,2.1-1.7,3.7-3.7,3.7c-2.1,0-3.7-1.7-3.7-3.7c0-2.1,1.7-3.7,3.7-3.7C-862.5,559.6-860.9,561.3-860.9,563.4z
			 M-836.6,567.1c-2.1,0-3.7-1.7-3.7-3.7c0-2.1,1.7-3.7,3.7-3.7c2.1,0,3.7,1.7,3.7,3.7S-834.6,567.1-836.6,567.1z"/>
	</g>
</g>
<g class="st0">
	<g class="st1">
		<path d="M-875.1,499H-892c-4.9,0-9,4-9,9c0,1.2,1,2.2,2.2,2.2s2.2-1.2,2.2-2.4c0-2.5,2.1-4.8,4.6-4.8h16.9c2.5,0,4.1,2.4,4.1,5
			v16.9c0,2.5-1.6,4.1-4.1,4.1H-892c-2.5,0-4.6-1.8-4.6-4.4c0-1.2-1-2.1-2.2-2.1c-1.2,0.1-2.2,1.2-2.2,2.4c0,4.9,4,9.1,9,9.1h16.9
			c4.9,0,9.1-4.2,9.1-9.1V508C-866,503-870.2,499-875.1,499z"/>
		<path d="M-875.1,545H-892c-4.9,0-9,3.7-9,8.6v16.9c0,4.9,4,8.5,9,8.5h16.9c4.9,0,9.1-3.5,9.1-8.5v-16.9
			C-866,548.7-870.2,545-875.1,545z M-871,570.5c0,2.5-1.6,4.5-4.1,4.5H-892c-2.5,0-5-1.9-5-4.5v-16.9c0-2.5,2.4-4.6,5-4.6h16.9
			c2.5,0,4.1,2.1,4.1,4.6V570.5z"/>
		<path d="M-846.4,534h16.9c4.9,0,8.5-4.2,8.5-9.1V508c0-4.9-3.5-9-8.5-9h-16.9c-4.9,0-8.6,4-8.6,9v16.9
			C-855,529.8-851.3,534-846.4,534z M-851,508c0-2.5,2.1-5,4.6-5h16.9c2.5,0,4.5,2.4,4.5,5v16.9c0,2.5-1.9,4.1-4.5,4.1h-16.9
			c-2.5,0-4.6-1.6-4.6-4.1V508z"/>
		<path d="M-819.6,555.8l-12-12c-1.7-1.7-3.9-2.6-6.3-2.6c-2.4,0-4.6,0.9-6.3,2.6l-12,12c-1.7,1.7-2.6,3.9-2.6,6.3
			c0,2.4,0.9,4.6,2.6,6.3l12,12c1.7,1.7,3.9,2.6,6.3,2.6c2.4,0,4.6-0.9,6.3-2.6l12-12c1.7-1.7,2.6-3.9,2.6-6.3
			C-817,559.7-817.9,557.4-819.6,555.8z M-822.7,565.3l-12,12c-1.8,1.8-4.7,1.8-6.5,0l-12-12c-1.8-1.8-1.8-4.7,0-6.5l12-12
			c0.9-0.9,2.1-1.3,3.2-1.3c1.2,0,2.3,0.4,3.2,1.3l12,12C-820.9,560.6-820.9,563.5-822.7,565.3z"/>
	</g>
</g>
<g class="st0">
	<g class="st1">
		<path d="M-830.6,531.9l-44.7-29.7c-3.4-2.2-7.6-2.4-11.2-0.5c-3.5,1.9-5.8,5.6-5.8,9.6c0,1.6,1.3,3,3,3s3-1.3,3-3
			c0-1.9,1-3.5,2.6-4.4c1.6-0.9,3.5-0.8,5.1,0.2l44.7,29.8c1.4,0.9,2.2,2.4,2.2,4.1s-0.8,3.2-2.2,4.1l-44.7,29.8
			c-1.5,1-3.3,1.1-4.9,0.2c-1.6-0.9-2.5-2.5-2.5-4.4v-38.9c0-1.6-1.4-3-3-3s-3,1.3-3,3v38.9c0,4,2.1,7.7,5.6,9.6
			c1.6,0.9,3.3,1.3,5.1,1.3c2.1,0,4.2-0.6,6-1.8l44.6-29.8c3-2,4.8-5.4,4.8-9.1C-825.9,537.2-827.6,534-830.6,531.9z"/>
	</g>
</g>
<g class="st0">
	<g class="st1">
		<path d="M-829,510.3c-1.6,0-3,1.3-3,2.9v19.7c0-0.2-0.4-0.5-0.7-0.7l-43.1-28.8c-3.2-2.2-7.3-2.4-10.8-0.5
			c-3.4,1.8-5.5,5.4-5.5,9.3c0,1.6,1.3,2.9,2.9,2.9c1.6,0,2.9-1.3,2.9-2.9c0-1.8,0.9-3.4,2.5-4.2c1.6-0.8,3.4-0.8,4.9,0.2l43.2,28.8
			c1.4,0.9,2.1,2.4,2.1,4s-0.8,3.1-2.1,4l-43.2,28.8c-1.5,1-3.2,1.1-4.7,0.2c-1.6-0.8-2.4-2.4-2.4-4.2v-37.7c0-1.6-1.4-2.9-3-2.9
			s-3,1.3-3,2.9v37.7c0,3.9,2.1,7.5,5.5,9.3c1.6,0.8,3.2,1.2,5,1.2c2,0,4.1-0.6,5.8-1.8l43-28.8c0.3-0.2,0.7-0.4,0.7-0.7v20.7
			c0,1.6,1.4,2.9,3,2.9s3-1.3,3-2.9v-56.5C-826,511.6-827.4,510.3-829,510.3z"/>
	</g>
</g>
<g class="st0">
	<g class="st1">
		<path d="M-831.4,504c-3.4-1.8-7.4-1.6-10.6,0.5c-0.1,0.1-0.2,0.1-0.3,0.2l-29.6,19.8c-1.3,0.9-1.7,2.6-0.8,3.9
			c0.5,0.8,1.4,1.3,2.4,1.3c0.5,0,1.1-0.2,1.6-0.5l30-20l0,0c1.5-1,3.5-1,5-0.2c1.6,0.8,2.7,2.4,2.7,4.2v56.6c0,1.8-1.1,3.3-2.7,4.2
			c-1.6,0.8-3.5,0.7-4.9-0.2l-42.6-28.4c-1.3-0.9-2.1-2.3-2.1-3.9s0.8-3,2.1-3.9c1.3-0.9,1.6-2.6,0.8-3.9c-0.9-1.3-2.5-1.7-3.8-0.8
			c-0.4,0.1-0.8,0.4-0.8,0.6v-19.4c0-1.6-1.4-2.8-3-2.8s-3,1.3-3,2.8v55.7c0,1.6,1.4,2.8,3,2.8s3-1.3,3-2.8v-20.3
			c0,0.2,0.4,0.4,0.7,0.6l42.4,28.3c1.7,1.2,3.7,1.7,5.7,1.7c1.7,0,3.2-0.4,4.8-1.2c3.4-1.8,5.3-5.3,5.3-9.1v-56.7
			C-826,509.3-828,505.8-831.4,504z"/>
	</g>
</g>
<g class="st0">
	<g class="st1">
		<path d="M-864,511c0-5-4-9-9-9h-2c-5,0-9,4-9,9v61c0,5,4,9,9,9h2c5,0,9-4,9-9V511z M-869,570.9c0,2.3-1.8,4.1-4.1,4.1h-1.8
			c-2.3,0-4.1-1.8-4.1-4.1v-60.8c0-2.3,1.8-4.1,4.1-4.1h1.8c2.3,0,4.1,1.8,4.1,4.1V570.9z"/>
		<path d="M-834,511c0-5-4-9-9-9h-2c-5,0-9,4-9,9v61c0,5,4,9,9,9h2c5,0,9-4,9-9V511z M-839,570.9c0,2.3-1.8,4.1-4.1,4.1h-1.8
			c-2.3,0-4.1-1.8-4.1-4.1v-60.8c0-2.3,1.8-4.1,4.1-4.1h1.8c2.3,0,4.1,1.8,4.1,4.1V570.9z"/>
	</g>
</g>
<g class="st0">
	<g class="st1">
		<path d="M-858.5,567.9c7.9,0,14.5-6.4,14.5-14.4v-42.4c0-7.9-6.6-14.4-14.5-14.4c-1.2,0-2.3,1-2.3,2.2c0,1.2,0.8,2.2,2,2.2
			c5.5,0,9.7,4.4,9.7,9.9v42.5c0,4.7-3,8.6-7,9.7v-17c0-1.2-1.3-2.2-2.5-2.2c-1.2,0-2.5,1-2.5,2.2v17c-4-1-7-4.8-7-9v-42.5
			c0-1.2-1.3-2.2-2.5-2.2c-1.2,0-2.5,1-2.5,2.2v42.5C-873,561.6-866.3,567.9-858.5,567.9z"/>
		<path d="M-834.8,558.6c-1.2,0-2.2,0.7-2.2,1.9c0,5.5-4.4,9.6-9.9,9.6h-22.5c-5.5,0-9.9-4.1-9.9-9.6c0-1.2-1-2.1-2.2-2.1
			s-2.2,0.5-2.2,1.7c-0.1,7.9,6.4,13.9,14.3,13.9h8.4v10h-3.4c-1.2,0-2.2,0.8-2.2,2s1,2,2.2,2h12.5c1.2,0,2.2-0.8,2.2-2s-1-2-2.2-2
			h-4.1v-10h9c7.9,0,14.4-5.9,14.4-13.8C-832.6,559-833.6,558.6-834.8,558.6z"/>
	</g>
</g>
<g class="st0">
	<path class="st2" d="M-831.9,514.1c0-0.1,0.1-0.2,0.1-0.2c0-0.1,0.1-0.1,0.1-0.2c0-0.1-0.2-0.2-0.2-0.2c0-0.1-0.2-0.1-0.2-0.2l0,0
		c0-0.1,0.2-0.1,0.2-0.2c0-0.1,0.1-0.2,0.1-0.2c0-0.1,0-0.1,0-0.2c0-0.1-0.1-0.2-0.2-0.2h-0.1l0,0h0.1v-0.1c0-0.3,0-0.4,0-0.4
		c0-0.1-0.1-0.1-0.1-0.2c0-0.1-0.1-0.1-0.1-0.2l0,0l0,0c-0.1-0.1-0.1-0.1-0.2-0.1c-0.1,0-0.1-0.1-0.2-0.1c-0.1,0-0.2-0.1-0.2-0.1
		l-0.1-0.1v-0.1l0,0v0.1c-0.1,0-0.2,0-0.2,0c-0.1,0-0.1,0-0.2,0c-0.1,0-0.1,0-0.2,0c-0.1,0-0.2,0-0.3,0h-0.1c-0.1,0-0.2,0-0.3,0
		h-0.1c-0.1,0-0.2,0-0.3,0.1l0,0l0,0l0,0l-61.6,26.1c0,0,0,0-0.1,0c-0.1,0-0.1,0.1-0.2,0.1s-0.1,0.1-0.2,0.1c-0.1,0-0.1,0.1-0.2,0.1
		c-0.1,0.1-0.1,0.1-0.2,0.2l-0.1,0.1c-0.1,0.1-0.1,0.1-0.1,0.2c0,0.1-0.1,0.1-0.1,0.2c0,0.1-0.1,0.2-0.1,0.2s0,0,0,0.1v0.1
		c0,0.1,0,0.2-0.1,0.3c0,0.1,0,0.1,0,0.2c0,0.1,0,0.2,0,0.2c0,0.1,0,0.1,0,0.2c0,0.1,0,0.1,0,0.2c0,0.1,0,0.2,0.1,0.2v0.1l0,0
		c0.1,0.2,0.2,0.4,0.3,0.5l0.1,0.1c0.1,0.1,0.2,0.2,0.4,0.3l0.1,0.1c0.1,0.1,0.3,0.2,0.5,0.2l25.2,8.4l8.4,25.2l0,0
		c0.1,0.2,0.2,0.4,0.3,0.6l0.1,0.1c0.1,0.2,0.3,0.3,0.4,0.4l0,0c0.1,0.1,0.3,0.2,0.4,0.2h0.1c0,0,0.2,0,0.3,0
		c0.2,0.1-0.3,0.1,0.7,0.1v-0.2v0.8h-0.2c0.2,0,0.5-0.1,0.7-0.1l0,0c0.2-0.1,0.3-0.1,0.5-0.2l0.1-0.1c0.1-0.1,0.3-0.2,0.4-0.3
		l0.1-0.1c0.1-0.2,0.2-0.3,0.3-0.5l0,0L-831.9,514.1L-831.9,514.1L-831.9,514.1L-831.9,514.1z M-860,568.2l-6.4-19.2l25.6-25.6
		L-860,568.2z"/>
</g>
<g class="st0">
	<g class="st1">
		<path d="M-889.7,554.1c1.1,0,1.9-0.9,1.9-1.9c0-0.9,0.3-1.7,0.9-2.3l39.5-39.5c0.8-0.8,0.8-2,0-2.7c-0.8-0.8-2-0.8-2.7,0
			l-39.4,39.4c-1.3,1.3-2.1,3.1-2.1,5C-891.6,553.2-890.7,554.1-889.7,554.1z"/>
		<path d="M-822.3,516.3l-9.1-9.1c-0.8-0.8-2-0.8-2.7,0c-0.8,0.8-0.8,2,0,2.7l9.1,9.1c0.6,0.6,0.9,1.4,0.9,2.3
			c0,0.9-0.3,1.7-0.9,2.3l-44,44c-0.6,0.6-1.4,0.9-2.3,0.9l-14.9,2.6c-1.7-0.1-3.1-1.5-3.1-3.2c0-1.1-0.9-1.9-1.9-1.9
			c-1.1,0-1.9,0.9-1.9,1.9c0,3.9,3.2,7.1,7.1,7.1h0.2l14.7-2.6c1.8,0,3.5-0.8,4.8-2.1l44-44c1.3-1.3,2.1-3.1,2.1-5
			C-820.2,519.5-821,517.7-822.3,516.3z"/>
		<path d="M-871,546.8l5,5c1.3,1.3,3.1,2.1,5,2.1s3.7-0.7,5-2.1l25-25c0.8-0.8,0.8-2,0-2.7c-0.8-0.8-2-0.8-2.7,0l-25,25
			c-1.2,1.2-3.3,1.2-4.6,0l-5-5c-1.3-1.3-1.3-3.3,0-4.6l29.6-29.5c0.8-0.8,0.8-2,0-2.7c-0.8-0.8-2-0.8-2.7,0l-29.6,29.5
			C-873.8,539.6-873.8,544.1-871,546.8z"/>
	</g>
</g>
<g>
	<path class="st3" d="M-894.7,529.7h11c0.5,0,0.9-0.2,1.3-0.4l18.7-14.2c1.4-1.1,3.5-0.1,3.5,1.7v48.5c0,1.8-2.1,2.8-3.5,1.7
		l-18.4-14.4c-0.4-0.3-0.9-0.5-1.3-0.5h-11.3c-1.2,0-2.2-1-2.2-2.2v-18C-896.8,530.6-895.9,529.7-894.7,529.7z"/>
	<g>
		<line class="st4" x1="-848" y1="528" x2="-822" y2="554"/>
		<line class="st4" x1="-822" y1="528" x2="-848" y2="554"/>
	</g>
</g>
</svg>
